<?xml version="1.0" encoding="UTF-8" standalone="no"?>
<!DOCTYPE svg PUBLIC "-//W3C//DTD SVG 1.1//EN" "http://www.w3.org/Graphics/SVG/1.1/DTD/svg11.dtd">
<svg xmlns="http://www.w3.org/2000/svg" version="1.1" viewBox="0.00 0.00 272.00 280.00">
<g stroke-width="2.00" fill="none" stroke-linecap="butt">
<path stroke="#6b7a83" vector-effect="non-scaling-stroke" d="
  M 263.83 47.21
  Q 265.31 54.02 263.58 57.26
  C 261.03 62.05 253.96 64.43 249.82 60.31"
/>
<path stroke="#728189" vector-effect="non-scaling-stroke" d="
  M 249.82 60.31
  C 246.87 56.50 245.17 51.35 239.07 53.30
  C 225.21 57.75 211.33 62.13 197.48 66.59
  Q 179.59 72.34 161.71 78.13
  C 152.33 81.17 145.92 87.57 147.15 98.38"
/>
<path stroke="#929da2" vector-effect="non-scaling-stroke" d="
  M 147.15 98.38
  Q 147.59 106.40 154.54 107.27
  C 157.17 107.60 161.58 106.64 164.01 105.81
  Q 190.36 96.73 216.83 88.00
  Q 216.86 87.99 227.79 84.92
  Q 236.43 82.49 242.95 77.96"
/>
<path stroke="#6b7a83" vector-effect="non-scaling-stroke" d="
  M 242.95 77.96
  Q 246.20 74.48 248.53 72.25
  C 255.63 65.44 265.19 73.28 263.40 81.72
  C 262.46 86.17 257.95 90.07 254.57 93.23
  A 0.69 0.69 0.0 0 0 254.50 94.16
  C 265.42 108.05 266.63 124.85 255.46 139.17
  Q 255.11 139.62 255.52 140.02
  C 259.10 143.55 263.25 147.04 263.44 152.53
  C 263.71 160.12 255.56 164.92 249.00 160.81"
/>
<path stroke="#728189" vector-effect="non-scaling-stroke" d="
  M 249.00 160.81
  C 245.57 157.63 244.45 151.51 239.25 151.01
  Q 235.74 150.68 231.91 152.03
  Q 209.35 160.02 186.79 168.05
  C 183.94 169.06 180.83 169.68 178.63 171.16
  Q 169.60 177.28 170.00 188.91"
/>
<path stroke="#929da2" vector-effect="non-scaling-stroke" d="
  M 170.00 188.91
  C 170.54 194.39 173.70 199.74 179.50 199.97
  Q 181.82 200.07 187.26 198.07
  Q 202.07 192.62 207.50 191.00
  Q 224.52 185.90 239.90 179.13"
/>
<path stroke="#6b7a83" vector-effect="non-scaling-stroke" d="
  M 239.90 179.13
  Q 244.61 175.22 248.13 171.85
  C 251.42 168.70 256.79 169.69 259.97 172.67
  Q 265.31 177.68 261.85 185.36
  Q 261.65 185.80 261.95 186.19
  L 270.40 197.29"
/>
<path stroke="#6b7a83" vector-effect="non-scaling-stroke" d="
  M 267.22 229.62
  Q 259.12 241.12 248.55 246.33
  C 240.18 250.45 227.69 252.97 220.80 255.19
  C 210.96 258.35 198.30 262.64 186.50 265.97
  C 177.94 268.39 167.83 267.97 157.51 267.05
  Q 139.47 265.44 121.44 263.59
  C 105.54 261.95 89.04 259.39 72.83 257.36
  C 63.87 256.24 55.32 254.89 46.58 253.55
  Q 32.81 251.45 27.27 249.09
  Q 14.22 243.56 5.73 230.85"
/>
<path stroke="#6b7a83" vector-effect="non-scaling-stroke" d="
  M 1.36 207.22
  Q 2.87 200.61 6.23 194.85
  C 8.15 191.54 11.23 188.64 13.95 185.74
  A 1.26 1.26 0.0 0 0 14.11 184.22
  C 6.78 172.27 6.66 155.59 15.86 144.51
  A 0.88 0.87 45.9 0 0 15.87 143.41
  C 4.81 129.22 4.40 110.55 16.87 96.71
  Q 17.27 96.27 16.82 95.88
  C 8.98 89.07 3.69 81.98 1.78 71.30"
/>
<path stroke="#d7dce1" vector-effect="non-scaling-stroke" d="
  M 239.90 179.13
  Q 242.57 172.24 243.04 166.85"
/>
<path stroke="#b7c0c8" vector-effect="non-scaling-stroke" d="
  M 243.04 166.85
  Q 243.51 166.03 243.36 164.80
  A 0.61 0.60 -8.5 0 1 243.86 164.13
  Q 246.54 163.69 248.17 161.57
  Q 248.63 160.98 248.63 161.36
  Q 248.63 161.61 248.94 161.41
  A 0.37 0.35 -22.7 0 0 249.09 161.07
  Q 249.07 160.95 249.00 160.81"
/>
<path stroke="#d7dce1" vector-effect="non-scaling-stroke" d="
  M 242.95 77.96
  Q 244.88 71.76 244.42 67.63"
/>
<path stroke="#b7c0c8" vector-effect="non-scaling-stroke" d="
  M 244.42 67.63
  L 247.16 64.42
  Q 247.47 64.06 247.81 63.71
  Q 248.24 63.27 248.60 62.78
  Q 248.84 62.46 249.17 62.25
  Q 250.06 61.69 249.82 60.31"
/>
<path stroke="#dde2e7" vector-effect="non-scaling-stroke" d="
  M 244.42 67.63
  Q 243.21 67.26 241.98 67.67
  Q 217.37 75.89 192.75 84.06
  C 189.34 85.19 185.61 86.05 182.45 87.12
  Q 165.01 93.00 147.15 98.38"
/>
<path stroke="#dde2e7" vector-effect="non-scaling-stroke" d="
  M 243.04 166.85
  L 242.90 164.68
  A 0.47 0.47 0.0 0 0 242.29 164.26
  C 236.46 166.13 230.99 168.06 224.87 169.81
  Q 218.08 171.76 211.42 174.13
  Q 190.70 181.51 170.00 188.91"
/>
<path stroke="#929da2" vector-effect="non-scaling-stroke" d="
  M 41.72 43.43
  Q 39.04 44.25 36.85 44.53
  Q 34.02 44.90 36.81 45.47
  Q 81.98 54.84 128.34 64.43
  C 133.37 65.47 139.44 66.09 144.86 67.41
  A 4.54 4.52 -46.8 0 0 147.26 67.33
  L 226.93 42.04
  Q 227.91 41.73 226.83 41.49
  L 125.79 19.43
  A 4.87 4.79 -47.3 0 0 123.31 19.55
  C 115.90 21.95 107.46 23.64 100.70 25.66
  Q 71.19 34.48 41.72 43.43"
/>
<path stroke="#728189" vector-effect="non-scaling-stroke" d="
  M 19.55 68.91
  Q 19.85 78.71 26.72 84.40
  Q 27.32 84.89 27.06 84.16
  Q 24.74 77.67 24.96 70.67"
/>
<path stroke="#929da2" vector-effect="non-scaling-stroke" d="
  M 24.96 70.67
  Q 25.89 64.56 28.80 60.32
  Q 30.15 58.35 27.76 58.30
  L 26.59 58.27
  Q 23.89 58.21 22.36 60.43
  Q 19.60 64.45 19.55 68.91"
/>
<path stroke="#dde2e7" vector-effect="non-scaling-stroke" d="
  M 24.96 70.67
  Q 21.53 70.94 19.55 68.91"
/>
<path stroke="#728189" vector-effect="non-scaling-stroke" d="
  M 38.06 73.86
  Q 37.36 82.97 43.34 89.22
  C 44.07 89.99 44.67 90.07 45.66 90.26
  Q 54.52 91.96 63.41 93.85
  Q 63.98 93.97 63.81 93.41
  Q 62.96 90.62 61.76 88.01
  Q 60.21 84.62 60.69 78.22"
/>
<path stroke="#929da2" vector-effect="non-scaling-stroke" d="
  M 60.69 78.22
  Q 61.46 71.72 64.97 66.25
  A 0.32 0.32 0.0 0 0 64.76 65.76
  L 44.17 61.65
  Q 43.27 61.47 42.67 62.16
  Q 37.94 67.52 38.06 73.86"
/>
<path stroke="#dde2e7" vector-effect="non-scaling-stroke" d="
  M 60.69 78.22
  L 38.06 73.86"
/>
<path stroke="#728189" vector-effect="non-scaling-stroke" d="
  M 75.89 81.65
  C 75.55 85.70 77.76 96.81 82.74 97.76
  Q 102.16 101.46 121.55 105.35
  C 126.23 106.29 131.45 106.90 136.41 107.81
  Q 136.91 107.90 136.67 107.46
  Q 132.90 100.41 133.64 92.76"
/>
<path stroke="#929da2" vector-effect="non-scaling-stroke" d="
  M 133.64 92.76
  Q 134.06 85.98 138.05 81.17
  A 0.58 0.58 0.0 0 0 137.72 80.23
  L 83.09 68.84
  A 1.52 1.52 0.0 0 0 81.86 69.12
  Q 76.09 73.47 75.89 81.65"
/>
<path stroke="#dde2e7" vector-effect="non-scaling-stroke" d="
  M 133.64 92.76
  L 75.89 81.65"
/>
<path stroke="#728189" vector-effect="non-scaling-stroke" d="
  M 24.14 118.10
  C 23.53 123.89 26.67 132.29 33.00 133.61
  Q 38.95 134.85 52.76 137.40
  Q 53.45 137.53 53.15 136.90
  Q 52.62 135.80 51.57 133.22
  Q 49.75 128.76 49.92 122.90"
/>
<path stroke="#929da2" vector-effect="non-scaling-stroke" d="
  M 49.92 122.90
  C 50.32 116.34 52.12 112.55 55.64 107.00
  Q 55.95 106.52 55.39 106.42
  Q 45.15 104.58 35.00 102.35
  Q 33.04 101.92 30.90 103.43
  Q 23.52 108.63 24.14 118.10"
/>
<path stroke="#dde2e7" vector-effect="non-scaling-stroke" d="
  M 49.92 122.90
  L 24.14 118.10"
/>
<path stroke="#929da2" vector-effect="non-scaling-stroke" d="
  M 162.10 126.96
  Q 155.39 133.15 156.36 142.60
  C 156.97 148.53 160.23 153.42 166.34 154.11
  Q 169.48 154.47 176.91 151.96
  C 184.15 149.51 191.85 147.29 198.66 144.89
  Q 212.71 139.96 226.76 135.05
  Q 234.24 132.44 238.58 129.67"
/>
<path stroke="#728189" vector-effect="non-scaling-stroke" d="
  M 238.58 129.67
  Q 243.89 126.81 245.08 120.52
  C 246.14 114.94 244.86 108.67 240.19 105.21
  C 236.22 102.28 232.58 102.44 227.68 104.03
  C 222.64 105.67 217.19 106.87 212.50 108.47
  Q 190.43 115.99 168.32 123.34
  Q 166.02 124.11 162.10 126.96"
/>
<path stroke="#dde2e7" vector-effect="non-scaling-stroke" d="
  M 238.58 129.67
  Q 233.96 128.44 232.73 127.77
  C 228.97 125.71 229.68 122.01 230.28 118.45
  Q 230.37 117.92 229.85 118.08
  Q 216.50 122.26 203.19 126.61
  C 200.45 127.50 197.52 128.09 194.97 128.99
  Q 184.13 132.81 173.22 136.42
  C 167.32 138.38 169.91 129.62 166.02 128.46
  Q 164.41 127.98 162.10 126.96"
/>
<path stroke="#728189" vector-effect="non-scaling-stroke" d="
  M 63.87 124.99
  C 63.56 128.86 65.68 139.95 70.50 140.83
  Q 78.41 142.27 86.42 143.83
  Q 87.00 143.94 86.75 143.40
  Q 83.41 136.27 83.96 128.54"
/>
<path stroke="#929da2" vector-effect="non-scaling-stroke" d="
  M 83.96 128.54
  Q 84.79 119.94 90.48 113.51
  A 0.42 0.42 0.0 0 0 90.25 112.82
  L 72.03 108.98
  A 2.55 2.53 29.6 0 0 69.79 109.59
  Q 63.35 115.45 63.87 124.99"
/>
<path stroke="#dde2e7" vector-effect="non-scaling-stroke" d="
  M 83.96 128.54
  L 64.45 125.75
  Q 64.11 125.70 64.00 125.38
  L 63.87 124.99"
/>
<path stroke="#728189" vector-effect="non-scaling-stroke" d="
  M 98.76 131.83
  C 98.58 135.61 100.55 146.58 104.99 147.51
  C 108.92 148.33 114.04 148.55 118.31 149.39
  Q 132.05 152.11 146.04 154.74
  A 0.35 0.34 -10.9 0 0 146.40 154.22
  Q 142.37 147.92 142.25 140.52"
/>
<path stroke="#929da2" vector-effect="non-scaling-stroke" d="
  M 142.25 140.52
  Q 142.12 132.21 146.62 125.00
  A 0.64 0.64 0.0 0 0 146.20 124.03
  L 105.49 115.80
  A 0.58 0.58 0.0 0 0 104.96 115.97
  Q 98.48 122.63 98.76 131.83"
/>
<path stroke="#dde2e7" vector-effect="non-scaling-stroke" d="
  M 142.25 140.52
  L 98.76 131.83"
/>
<path stroke="#728189" vector-effect="non-scaling-stroke" d="
  M 23.95 164.94
  Q 23.42 171.61 27.24 176.99
  Q 29.64 180.36 31.75 180.75
  Q 42.40 182.74 53.17 184.60
  Q 53.74 184.70 53.49 184.18
  Q 50.17 177.24 50.22 169.75"
/>
<path stroke="#929da2" vector-effect="non-scaling-stroke" d="
  M 50.22 169.75
  Q 50.55 160.01 56.47 152.43
  Q 56.76 152.05 56.30 151.95
  Q 40.09 148.19 34.96 148.05
  C 27.15 147.84 23.71 158.33 23.95 164.94"
/>
<path stroke="#dde2e7" vector-effect="non-scaling-stroke" d="
  M 50.22 169.75
  L 23.95 164.94"
/>
<path stroke="#728189" vector-effect="non-scaling-stroke" d="
  M 63.43 170.83
  Q 62.53 177.96 66.03 184.66
  Q 67.34 187.17 69.24 187.51
  Q 82.56 189.92 95.94 191.54
  Q 96.30 191.59 96.15 191.26
  Q 92.70 183.93 93.44 175.48"
/>
<path stroke="#929da2" vector-effect="non-scaling-stroke" d="
  M 93.44 175.48
  Q 93.89 167.37 99.30 160.70
  Q 99.87 160.00 98.99 159.83
  L 70.55 154.40
  Q 70.05 154.31 69.68 154.66
  Q 63.23 160.73 63.43 170.83"
/>
<path stroke="#dde2e7" vector-effect="non-scaling-stroke" d="
  M 93.44 175.48
  L 93.36 176.35
  Q 93.31 176.91 92.75 176.95
  Q 91.58 177.04 91.00 176.93
  C 84.06 175.65 77.20 174.16 70.23 173.06
  Q 66.36 172.46 63.43 170.83"
/>
<path stroke="#728189" vector-effect="non-scaling-stroke" d="
  M 106.02 179.98
  Q 105.53 187.50 110.24 193.01
  Q 111.51 194.49 112.75 194.71
  Q 136.27 198.82 159.49 203.09
  Q 160.69 203.31 159.94 202.35
  Q 155.67 196.83 155.02 189.02"
/>
<path stroke="#929da2" vector-effect="non-scaling-stroke" d="
  M 155.02 189.02
  Q 154.49 179.48 160.16 171.63
  A 0.26 0.25 -66.5 0 0 160.01 171.23
  L 113.74 162.83
  Q 113.24 162.74 112.86 163.07
  Q 105.28 169.66 106.02 179.98"
/>
<path stroke="#dde2e7" vector-effect="non-scaling-stroke" d="
  M 155.02 189.02
  L 106.02 179.98"
/>
<path stroke="#929da2" vector-effect="non-scaling-stroke" d="
  M 179.26 222.58
  Q 174.57 229.47 176.18 237.95
  C 177.59 245.32 182.83 249.24 190.27 246.78
  Q 198.68 244.00 228.11 233.26
  C 237.96 229.66 248.90 229.40 252.55 217.44"
/>
<path stroke="#728189" vector-effect="non-scaling-stroke" d="
  M 252.55 217.44
  Q 256.78 208.66 252.04 200.74
  C 247.02 192.34 239.67 194.65 231.78 197.54
  Q 216.23 203.23 200.65 208.83
  C 197.41 209.99 193.25 210.75 189.96 212.17
  Q 183.16 215.08 179.26 222.58"
/>
<path stroke="#dde2e7" vector-effect="non-scaling-stroke" d="
  M 252.55 217.44
  C 252.04 209.27 249.82 197.98 238.22 202.20
  Q 228.89 205.60 219.55 208.97
  C 217.00 209.89 213.99 210.56 211.24 211.51
  Q 195.72 216.89 179.26 222.58"
/>
<path stroke="#728189" vector-effect="non-scaling-stroke" d="
  M 20.26 214.54
  C 19.85 222.43 23.20 229.93 31.24 232.27
  Q 31.76 232.42 31.56 231.91
  Q 28.55 224.13 28.93 215.90"
/>
<path stroke="#929da2" vector-effect="non-scaling-stroke" d="
  M 28.93 215.90
  Q 29.99 204.27 38.12 196.33
  A 0.40 0.40 0.0 0 0 37.94 195.65
  C 35.61 195.08 33.48 194.84 31.24 196.04
  Q 20.52 201.80 20.26 214.54"
/>
<path stroke="#dde2e7" vector-effect="non-scaling-stroke" d="
  M 28.93 215.90
  L 20.26 214.54"
/>
<path stroke="#728189" vector-effect="non-scaling-stroke" d="
  M 43.96 218.40
  Q 43.01 228.40 48.99 236.06
  A 0.57 0.55 -14.7 0 0 49.36 236.27
  L 58.27 237.29
  A 0.17 0.17 0.0 0 0 58.44 237.03
  Q 54.04 229.10 54.33 219.81"
/>
<path stroke="#929da2" vector-effect="non-scaling-stroke" d="
  M 54.33 219.81
  Q 54.95 208.94 61.93 200.64
  A 0.69 0.69 0.0 0 0 61.52 199.51
  L 55.03 198.43
  Q 54.48 198.34 54.00 198.61
  C 47.33 202.42 43.92 211.21 43.96 218.40"
/>
<path stroke="#dde2e7" vector-effect="non-scaling-stroke" d="
  M 54.33 219.81
  L 43.96 218.40"
/>
<path stroke="#728189" vector-effect="non-scaling-stroke" d="
  M 68.53 221.98
  Q 67.95 231.52 73.50 239.41
  A 1.04 1.03 -13.6 0 0 74.21 239.84
  L 113.89 245.19
  Q 114.82 245.32 114.38 244.48
  Q 110.50 237.15 110.70 229.12"
/>
<path stroke="#929da2" vector-effect="non-scaling-stroke" d="
  M 110.70 229.12
  Q 110.75 218.10 116.92 210.03
  A 0.29 0.29 0.0 0 0 116.75 209.57
  L 77.70 202.33
  Q 77.21 202.24 76.79 202.52
  C 71.15 206.30 68.49 215.54 68.53 221.98"
/>
<path stroke="#dde2e7" vector-effect="non-scaling-stroke" d="
  M 110.70 229.12
  L 69.32 222.81
  Q 68.91 222.75 68.80 222.36
  Q 68.71 222.06 68.53 221.98"
/>
<path stroke="#728189" vector-effect="non-scaling-stroke" d="
  M 123.47 230.43
  Q 123.34 238.53 127.66 245.24
  A 4.45 4.42 -13.9 0 0 131.03 247.26
  L 131.87 247.33
  Q 133.80 247.48 132.96 245.74
  Q 129.95 239.48 129.87 231.59"
/>
<path stroke="#929da2" vector-effect="non-scaling-stroke" d="
  M 129.87 231.59
  Q 130.40 221.36 136.03 212.96
  Q 136.41 212.39 135.74 212.26
  L 131.32 211.37
  Q 130.82 211.27 130.42 211.59
  C 125.12 215.89 123.52 224.04 123.47 230.43"
/>
<path stroke="#dde2e7" vector-effect="non-scaling-stroke" d="
  M 129.87 231.59
  L 123.47 230.43"
/>
<path stroke="#728189" vector-effect="non-scaling-stroke" d="
  M 142.19 232.86
  Q 141.83 241.37 146.64 248.48
  Q 146.97 248.96 147.55 249.04
  L 164.98 251.41
  A 0.43 0.42 -12.2 0 0 165.40 250.76
  Q 160.90 243.82 160.28 236.17"
/>
<path stroke="#929da2" vector-effect="non-scaling-stroke" d="
  M 160.28 236.17
  Q 159.63 225.68 164.69 217.64
  A 0.32 0.32 0.0 0 0 164.48 217.15
  Q 157.55 215.95 150.52 214.64
  Q 148.59 214.28 147.46 215.97
  Q 142.23 223.79 142.19 232.86"
/>
<path stroke="#dde2e7" vector-effect="non-scaling-stroke" d="
  M 160.28 236.17
  L 142.19 232.86"
/>
<path stroke="#929da2" vector-effect="non-scaling-stroke" d="
  M 136.3590 31.4994
  A 10.07 5.59 -0.8 0 0 126.2120 26.0505
  A 10.07 5.59 -0.8 0 0 116.2210 31.7806
  A 10.07 5.59 -0.8 0 0 126.3680 37.2295
  A 10.07 5.59 -0.8 0 0 136.3590 31.4994"
/>
</g>
<path fill="#263b44" d="
  M 263.83 47.21
  Q 265.31 54.02 263.58 57.26
  C 261.03 62.05 253.96 64.43 249.82 60.31
  C 246.87 56.50 245.17 51.35 239.07 53.30
  C 225.21 57.75 211.33 62.13 197.48 66.59
  Q 179.59 72.34 161.71 78.13
  C 152.33 81.17 145.92 87.57 147.15 98.38
  Q 147.59 106.40 154.54 107.27
  C 157.17 107.60 161.58 106.64 164.01 105.81
  Q 190.36 96.73 216.83 88.00
  Q 216.86 87.99 227.79 84.92
  Q 236.43 82.49 242.95 77.96
  Q 246.20 74.48 248.53 72.25
  C 255.63 65.44 265.19 73.28 263.40 81.72
  C 262.46 86.17 257.95 90.07 254.57 93.23
  A 0.69 0.69 0.0 0 0 254.50 94.16
  C 265.42 108.05 266.63 124.85 255.46 139.17
  Q 255.11 139.62 255.52 140.02
  C 259.10 143.55 263.25 147.04 263.44 152.53
  C 263.71 160.12 255.56 164.92 249.00 160.81
  C 245.57 157.63 244.45 151.51 239.25 151.01
  Q 235.74 150.68 231.91 152.03
  Q 209.35 160.02 186.79 168.05
  C 183.94 169.06 180.83 169.68 178.63 171.16
  Q 169.60 177.28 170.00 188.91
  C 170.54 194.39 173.70 199.74 179.50 199.97
  Q 181.82 200.07 187.26 198.07
  Q 202.07 192.62 207.50 191.00
  Q 224.52 185.90 239.90 179.13
  Q 244.61 175.22 248.13 171.85
  C 251.42 168.70 256.79 169.69 259.97 172.67
  Q 265.31 177.68 261.85 185.36
  Q 261.65 185.80 261.95 186.19
  L 270.40 197.29
  Q 271.78 204.80 271.41 215.00
  Q 271.09 223.63 267.22 229.62
  Q 259.12 241.12 248.55 246.33
  C 240.18 250.45 227.69 252.97 220.80 255.19
  C 210.96 258.35 198.30 262.64 186.50 265.97
  C 177.94 268.39 167.83 267.97 157.51 267.05
  Q 139.47 265.44 121.44 263.59
  C 105.54 261.95 89.04 259.39 72.83 257.36
  C 63.87 256.24 55.32 254.89 46.58 253.55
  Q 32.81 251.45 27.27 249.09
  Q 14.22 243.56 5.73 230.85
  Q 0.06 220.30 1.36 207.22
  Q 2.87 200.61 6.23 194.85
  C 8.15 191.54 11.23 188.64 13.95 185.74
  A 1.26 1.26 0.0 0 0 14.11 184.22
  C 6.78 172.27 6.66 155.59 15.86 144.51
  A 0.88 0.87 45.9 0 0 15.87 143.41
  C 4.81 129.22 4.40 110.55 16.87 96.71
  Q 17.27 96.27 16.82 95.88
  C 8.98 89.07 3.69 81.98 1.78 71.30
  Q 1.30 57.52 8.44 46.45
  Q 18.37 31.05 35.98 26.01
  C 44.39 23.60 53.46 21.34 61.25 19.11
  Q 88.29 11.34 115.39 3.80
  C 118.46 2.94 123.18 1.71 126.34 2.15
  C 129.63 2.61 132.94 2.99 136.19 3.71
  Q 179.43 13.32 222.79 22.39
  Q 227.21 23.31 231.62 24.32
  C 245.63 27.52 256.39 34.69 263.83 47.21
  Z
  M 41.72 43.43
  Q 39.04 44.25 36.85 44.53
  Q 34.02 44.90 36.81 45.47
  Q 81.98 54.84 128.34 64.43
  C 133.37 65.47 139.44 66.09 144.86 67.41
  A 4.54 4.52 -46.8 0 0 147.26 67.33
  L 226.93 42.04
  Q 227.91 41.73 226.83 41.49
  L 125.79 19.43
  A 4.87 4.79 -47.3 0 0 123.31 19.55
  C 115.90 21.95 107.46 23.64 100.70 25.66
  Q 71.19 34.48 41.72 43.43
  Z
  M 19.55 68.91
  Q 19.85 78.71 26.72 84.40
  Q 27.32 84.89 27.06 84.16
  Q 24.74 77.67 24.96 70.67
  Q 25.89 64.56 28.80 60.32
  Q 30.15 58.35 27.76 58.30
  L 26.59 58.27
  Q 23.89 58.21 22.36 60.43
  Q 19.60 64.45 19.55 68.91
  Z
  M 38.06 73.86
  Q 37.36 82.97 43.34 89.22
  C 44.07 89.99 44.67 90.07 45.66 90.26
  Q 54.52 91.96 63.41 93.85
  Q 63.98 93.97 63.81 93.41
  Q 62.96 90.62 61.76 88.01
  Q 60.21 84.62 60.69 78.22
  Q 61.46 71.72 64.97 66.25
  A 0.32 0.32 0.0 0 0 64.76 65.76
  L 44.17 61.65
  Q 43.27 61.47 42.67 62.16
  Q 37.94 67.52 38.06 73.86
  Z
  M 75.89 81.65
  C 75.55 85.70 77.76 96.81 82.74 97.76
  Q 102.16 101.46 121.55 105.35
  C 126.23 106.29 131.45 106.90 136.41 107.81
  Q 136.91 107.90 136.67 107.46
  Q 132.90 100.41 133.64 92.76
  Q 134.06 85.98 138.05 81.17
  A 0.58 0.58 0.0 0 0 137.72 80.23
  L 83.09 68.84
  A 1.52 1.52 0.0 0 0 81.86 69.12
  Q 76.09 73.47 75.89 81.65
  Z
  M 24.14 118.10
  C 23.53 123.89 26.67 132.29 33.00 133.61
  Q 38.95 134.85 52.76 137.40
  Q 53.45 137.53 53.15 136.90
  Q 52.62 135.80 51.57 133.22
  Q 49.75 128.76 49.92 122.90
  C 50.32 116.34 52.12 112.55 55.64 107.00
  Q 55.95 106.52 55.39 106.42
  Q 45.15 104.58 35.00 102.35
  Q 33.04 101.92 30.90 103.43
  Q 23.52 108.63 24.14 118.10
  Z
  M 162.10 126.96
  Q 155.39 133.15 156.36 142.60
  C 156.97 148.53 160.23 153.42 166.34 154.11
  Q 169.48 154.47 176.91 151.96
  C 184.15 149.51 191.85 147.29 198.66 144.89
  Q 212.71 139.96 226.76 135.05
  Q 234.24 132.44 238.58 129.67
  Q 243.89 126.81 245.08 120.52
  C 246.14 114.94 244.86 108.67 240.19 105.21
  C 236.22 102.28 232.58 102.44 227.68 104.03
  C 222.64 105.67 217.19 106.87 212.50 108.47
  Q 190.43 115.99 168.32 123.34
  Q 166.02 124.11 162.10 126.96
  Z
  M 63.87 124.99
  C 63.56 128.86 65.68 139.95 70.50 140.83
  Q 78.41 142.27 86.42 143.83
  Q 87.00 143.94 86.75 143.40
  Q 83.41 136.27 83.96 128.54
  Q 84.79 119.94 90.48 113.51
  A 0.42 0.42 0.0 0 0 90.25 112.82
  L 72.03 108.98
  A 2.55 2.53 29.6 0 0 69.79 109.59
  Q 63.35 115.45 63.87 124.99
  Z
  M 98.76 131.83
  C 98.58 135.61 100.55 146.58 104.99 147.51
  C 108.92 148.33 114.04 148.55 118.31 149.39
  Q 132.05 152.11 146.04 154.74
  A 0.35 0.34 -10.9 0 0 146.40 154.22
  Q 142.37 147.92 142.25 140.52
  Q 142.12 132.21 146.62 125.00
  A 0.64 0.64 0.0 0 0 146.20 124.03
  L 105.49 115.80
  A 0.58 0.58 0.0 0 0 104.96 115.97
  Q 98.48 122.63 98.76 131.83
  Z
  M 23.95 164.94
  Q 23.42 171.61 27.24 176.99
  Q 29.64 180.36 31.75 180.75
  Q 42.40 182.74 53.17 184.60
  Q 53.74 184.70 53.49 184.18
  Q 50.17 177.24 50.22 169.75
  Q 50.55 160.01 56.47 152.43
  Q 56.76 152.05 56.30 151.95
  Q 40.09 148.19 34.96 148.05
  C 27.15 147.84 23.71 158.33 23.95 164.94
  Z
  M 63.43 170.83
  Q 62.53 177.96 66.03 184.66
  Q 67.34 187.17 69.24 187.51
  Q 82.56 189.92 95.94 191.54
  Q 96.30 191.59 96.15 191.26
  Q 92.70 183.93 93.44 175.48
  Q 93.89 167.37 99.30 160.70
  Q 99.87 160.00 98.99 159.83
  L 70.55 154.40
  Q 70.05 154.31 69.68 154.66
  Q 63.23 160.73 63.43 170.83
  Z
  M 106.02 179.98
  Q 105.53 187.50 110.24 193.01
  Q 111.51 194.49 112.75 194.71
  Q 136.27 198.82 159.49 203.09
  Q 160.69 203.31 159.94 202.35
  Q 155.67 196.83 155.02 189.02
  Q 154.49 179.48 160.16 171.63
  A 0.26 0.25 -66.5 0 0 160.01 171.23
  L 113.74 162.83
  Q 113.24 162.74 112.86 163.07
  Q 105.28 169.66 106.02 179.98
  Z
  M 179.26 222.58
  Q 174.57 229.47 176.18 237.95
  C 177.59 245.32 182.83 249.24 190.27 246.78
  Q 198.68 244.00 228.11 233.26
  C 237.96 229.66 248.90 229.40 252.55 217.44
  Q 256.78 208.66 252.04 200.74
  C 247.02 192.34 239.67 194.65 231.78 197.54
  Q 216.23 203.23 200.65 208.83
  C 197.41 209.99 193.25 210.75 189.96 212.17
  Q 183.16 215.08 179.26 222.58
  Z
  M 20.26 214.54
  C 19.85 222.43 23.20 229.93 31.24 232.27
  Q 31.76 232.42 31.56 231.91
  Q 28.55 224.13 28.93 215.90
  Q 29.99 204.27 38.12 196.33
  A 0.40 0.40 0.0 0 0 37.94 195.65
  C 35.61 195.08 33.48 194.84 31.24 196.04
  Q 20.52 201.80 20.26 214.54
  Z
  M 43.96 218.40
  Q 43.01 228.40 48.99 236.06
  A 0.57 0.55 -14.7 0 0 49.36 236.27
  L 58.27 237.29
  A 0.17 0.17 0.0 0 0 58.44 237.03
  Q 54.04 229.10 54.33 219.81
  Q 54.95 208.94 61.93 200.64
  A 0.69 0.69 0.0 0 0 61.52 199.51
  L 55.03 198.43
  Q 54.48 198.34 54.00 198.61
  C 47.33 202.42 43.92 211.21 43.96 218.40
  Z
  M 68.53 221.98
  Q 67.95 231.52 73.50 239.41
  A 1.04 1.03 -13.6 0 0 74.21 239.84
  L 113.89 245.19
  Q 114.82 245.32 114.38 244.48
  Q 110.50 237.15 110.70 229.12
  Q 110.75 218.10 116.92 210.03
  A 0.29 0.29 0.0 0 0 116.75 209.57
  L 77.70 202.33
  Q 77.21 202.24 76.79 202.52
  C 71.15 206.30 68.49 215.54 68.53 221.98
  Z
  M 123.47 230.43
  Q 123.34 238.53 127.66 245.24
  A 4.45 4.42 -13.9 0 0 131.03 247.26
  L 131.87 247.33
  Q 133.80 247.48 132.96 245.74
  Q 129.95 239.48 129.87 231.59
  Q 130.40 221.36 136.03 212.96
  Q 136.41 212.39 135.74 212.26
  L 131.32 211.37
  Q 130.82 211.27 130.42 211.59
  C 125.12 215.89 123.52 224.04 123.47 230.43
  Z
  M 142.19 232.86
  Q 141.83 241.37 146.64 248.48
  Q 146.97 248.96 147.55 249.04
  L 164.98 251.41
  A 0.43 0.42 -12.2 0 0 165.40 250.76
  Q 160.90 243.82 160.28 236.17
  Q 159.63 225.68 164.69 217.64
  A 0.32 0.32 0.0 0 0 164.48 217.15
  Q 157.55 215.95 150.52 214.64
  Q 148.59 214.28 147.46 215.97
  Q 142.23 223.79 142.19 232.86
  Z"
/>
<path fill="#fdfeff" d="
  M 41.72 43.43
  Q 71.19 34.48 100.70 25.66
  C 107.46 23.64 115.90 21.95 123.31 19.55
  A 4.87 4.79 -47.3 0 1 125.79 19.43
  L 226.83 41.49
  Q 227.91 41.73 226.93 42.04
  L 147.26 67.33
  A 4.54 4.52 -46.8 0 1 144.86 67.41
  C 139.44 66.09 133.37 65.47 128.34 64.43
  Q 81.98 54.84 36.81 45.47
  Q 34.02 44.90 36.85 44.53
  Q 39.04 44.25 41.72 43.43
  Z
  M 136.3590 31.4994
  A 10.07 5.59 -0.8 0 0 126.2120 26.0505
  A 10.07 5.59 -0.8 0 0 116.2210 31.7806
  A 10.07 5.59 -0.8 0 0 126.3680 37.2295
  A 10.07 5.59 -0.8 0 0 136.3590 31.4994
  Z"
/>
<ellipse fill="#263b44" cx="0.00" cy="0.00" transform="translate(126.29,31.64) rotate(-0.8)" rx="10.07" ry="5.59"/>
<path fill="#b0b9c2" d="
  M 263.83 47.21
  Q 267.81 53.97 269.47 61.32
  C 271.10 68.51 270.32 77.68 270.31 85.75
  Q 270.23 141.11 270.40 197.29
  L 261.95 186.19
  Q 261.65 185.80 261.85 185.36
  Q 265.31 177.68 259.97 172.67
  C 256.79 169.69 251.42 168.70 248.13 171.85
  Q 244.61 175.22 239.90 179.13
  Q 242.57 172.24 243.04 166.85
  Q 243.51 166.03 243.36 164.80
  A 0.61 0.60 -8.5 0 1 243.86 164.13
  Q 246.54 163.69 248.17 161.57
  Q 248.63 160.98 248.63 161.36
  Q 248.63 161.61 248.94 161.41
  A 0.37 0.35 -22.7 0 0 249.09 161.07
  Q 249.07 160.95 249.00 160.81
  C 255.56 164.92 263.71 160.12 263.44 152.53
  C 263.25 147.04 259.10 143.55 255.52 140.02
  Q 255.11 139.62 255.46 139.17
  C 266.63 124.85 265.42 108.05 254.50 94.16
  A 0.69 0.69 0.0 0 1 254.57 93.23
  C 257.95 90.07 262.46 86.17 263.40 81.72
  C 265.19 73.28 255.63 65.44 248.53 72.25
  Q 246.20 74.48 242.95 77.96
  Q 244.88 71.76 244.42 67.63
  L 247.16 64.42
  Q 247.47 64.06 247.81 63.71
  Q 248.24 63.27 248.60 62.78
  Q 248.84 62.46 249.17 62.25
  Q 250.06 61.69 249.82 60.31
  C 253.96 64.43 261.03 62.05 263.58 57.26
  Q 265.31 54.02 263.83 47.21
  Z"
/>
<path fill="#bdc6ce" d="
  M 249.82 60.31
  Q 250.06 61.69 249.17 62.25
  Q 248.84 62.46 248.60 62.78
  Q 248.24 63.27 247.81 63.71
  Q 247.47 64.06 247.16 64.42
  L 244.42 67.63
  Q 243.21 67.26 241.98 67.67
  Q 217.37 75.89 192.75 84.06
  C 189.34 85.19 185.61 86.05 182.45 87.12
  Q 165.01 93.00 147.15 98.38
  C 145.92 87.57 152.33 81.17 161.71 78.13
  Q 179.59 72.34 197.48 66.59
  C 211.33 62.13 225.21 57.75 239.07 53.30
  C 245.17 51.35 246.87 56.50 249.82 60.31
  Z"
/>
<path fill="#fdfeff" d="
  M 24.96 70.67
  Q 21.53 70.94 19.55 68.91
  Q 19.60 64.45 22.36 60.43
  Q 23.89 58.21 26.59 58.27
  L 27.76 58.30
  Q 30.15 58.35 28.80 60.32
  Q 25.89 64.56 24.96 70.67
  Z"
/>
<path fill="#fdfeff" d="
  M 60.69 78.22
  L 38.06 73.86
  Q 37.94 67.52 42.67 62.16
  Q 43.27 61.47 44.17 61.65
  L 64.76 65.76
  A 0.32 0.32 0.0 0 1 64.97 66.25
  Q 61.46 71.72 60.69 78.22
  Z"
/>
<path fill="#fdfeff" d="
  M 244.42 67.63
  Q 244.88 71.76 242.95 77.96
  Q 236.43 82.49 227.79 84.92
  Q 216.86 87.99 216.83 88.00
  Q 190.36 96.73 164.01 105.81
  C 161.58 106.64 157.17 107.60 154.54 107.27
  Q 147.59 106.40 147.15 98.38
  Q 165.01 93.00 182.45 87.12
  C 185.61 86.05 189.34 85.19 192.75 84.06
  Q 217.37 75.89 241.98 67.67
  Q 243.21 67.26 244.42 67.63
  Z"
/>
<path fill="#bdc6ce" d="
  M 19.55 68.91
  Q 21.53 70.94 24.96 70.67
  Q 24.74 77.67 27.06 84.16
  Q 27.32 84.89 26.72 84.40
  Q 19.85 78.71 19.55 68.91
  Z"
/>
<path fill="#fdfeff" d="
  M 133.64 92.76
  L 75.89 81.65
  Q 76.09 73.47 81.86 69.12
  A 1.52 1.52 0.0 0 1 83.09 68.84
  L 137.72 80.23
  A 0.58 0.58 0.0 0 1 138.05 81.17
  Q 134.06 85.98 133.64 92.76
  Z"
/>
<path fill="#b0b9c2" d="
  M 1.78 71.30
  C 3.69 81.98 8.98 89.07 16.82 95.88
  Q 17.27 96.27 16.87 96.71
  C 4.40 110.55 4.81 129.22 15.87 143.41
  A 0.88 0.87 45.9 0 1 15.86 144.51
  C 6.66 155.59 6.78 172.27 14.11 184.22
  A 1.26 1.26 0.0 0 1 13.95 185.74
  C 11.23 188.64 8.15 191.54 6.23 194.85
  Q 2.87 200.61 1.36 207.22
  C 1.06 190.95 1.48 173.64 1.46 158.49
  Q 1.36 104.94 1.19 77.75
  Q 1.17 74.39 1.78 71.30
  Z"
/>
<path fill="#bdc6ce" d="
  M 38.06 73.86
  L 60.69 78.22
  Q 60.21 84.62 61.76 88.01
  Q 62.96 90.62 63.81 93.41
  Q 63.98 93.97 63.41 93.85
  Q 54.52 91.96 45.66 90.26
  C 44.67 90.07 44.07 89.99 43.34 89.22
  Q 37.36 82.97 38.06 73.86
  Z"
/>
<path fill="#bdc6ce" d="
  M 75.89 81.65
  L 133.64 92.76
  Q 132.90 100.41 136.67 107.46
  Q 136.91 107.90 136.41 107.81
  C 131.45 106.90 126.23 106.29 121.55 105.35
  Q 102.16 101.46 82.74 97.76
  C 77.76 96.81 75.55 85.70 75.89 81.65
  Z"
/>
<path fill="#fdfeff" d="
  M 49.92 122.90
  L 24.14 118.10
  Q 23.52 108.63 30.90 103.43
  Q 33.04 101.92 35.00 102.35
  Q 45.15 104.58 55.39 106.42
  Q 55.95 106.52 55.64 107.00
  C 52.12 112.55 50.32 116.34 49.92 122.90
  Z"
/>
<path fill="#bdc6ce" d="
  M 238.58 129.67
  Q 233.96 128.44 232.73 127.77
  C 228.97 125.71 229.68 122.01 230.28 118.45
  Q 230.37 117.92 229.85 118.08
  Q 216.50 122.26 203.19 126.61
  C 200.45 127.50 197.52 128.09 194.97 128.99
  Q 184.13 132.81 173.22 136.42
  C 167.32 138.38 169.91 129.62 166.02 128.46
  Q 164.41 127.98 162.10 126.96
  Q 166.02 124.11 168.32 123.34
  Q 190.43 115.99 212.50 108.47
  C 217.19 106.87 222.64 105.67 227.68 104.03
  C 232.58 102.44 236.22 102.28 240.19 105.21
  C 244.86 108.67 246.14 114.94 245.08 120.52
  Q 243.89 126.81 238.58 129.67
  Z"
/>
<path fill="#fdfeff" d="
  M 83.96 128.54
  L 64.45 125.75
  Q 64.11 125.70 64.00 125.38
  L 63.87 124.99
  Q 63.35 115.45 69.79 109.59
  A 2.55 2.53 29.6 0 1 72.03 108.98
  L 90.25 112.82
  A 0.42 0.42 0.0 0 1 90.48 113.51
  Q 84.79 119.94 83.96 128.54
  Z"
/>
<path fill="#fdfeff" d="
  M 142.25 140.52
  L 98.76 131.83
  Q 98.48 122.63 104.96 115.97
  A 0.58 0.58 0.0 0 1 105.49 115.80
  L 146.20 124.03
  A 0.64 0.64 0.0 0 1 146.62 125.00
  Q 142.12 132.21 142.25 140.52
  Z"
/>
<path fill="#fdfeff" d="
  M 238.58 129.67
  Q 234.24 132.44 226.76 135.05
  Q 212.71 139.96 198.66 144.89
  C 191.85 147.29 184.15 149.51 176.91 151.96
  Q 169.48 154.47 166.34 154.11
  C 160.23 153.42 156.97 148.53 156.36 142.60
  Q 155.39 133.15 162.10 126.96
  Q 164.41 127.98 166.02 128.46
  C 169.91 129.62 167.32 138.38 173.22 136.42
  Q 184.13 132.81 194.97 128.99
  C 197.52 128.09 200.45 127.50 203.19 126.61
  Q 216.50 122.26 229.85 118.08
  Q 230.37 117.92 230.28 118.45
  C 229.68 122.01 228.97 125.71 232.73 127.77
  Q 233.96 128.44 238.58 129.67
  Z"
/>
<path fill="#bdc6ce" d="
  M 24.14 118.10
  L 49.92 122.90
  Q 49.75 128.76 51.57 133.22
  Q 52.62 135.80 53.15 136.90
  Q 53.45 137.53 52.76 137.40
  Q 38.95 134.85 33.00 133.61
  C 26.67 132.29 23.53 123.89 24.14 118.10
  Z"
/>
<path fill="#bdc6ce" d="
  M 63.87 124.99
  L 64.00 125.38
  Q 64.11 125.70 64.45 125.75
  L 83.96 128.54
  Q 83.41 136.27 86.75 143.40
  Q 87.00 143.94 86.42 143.83
  Q 78.41 142.27 70.50 140.83
  C 65.68 139.95 63.56 128.86 63.87 124.99
  Z"
/>
<path fill="#bdc6ce" d="
  M 98.76 131.83
  L 142.25 140.52
  Q 142.37 147.92 146.40 154.22
  A 0.35 0.34 -10.9 0 1 146.04 154.74
  Q 132.05 152.11 118.31 149.39
  C 114.04 148.55 108.92 148.33 104.99 147.51
  C 100.55 146.58 98.58 135.61 98.76 131.83
  Z"
/>
<path fill="#fdfeff" d="
  M 50.22 169.75
  L 23.95 164.94
  C 23.71 158.33 27.15 147.84 34.96 148.05
  Q 40.09 148.19 56.30 151.95
  Q 56.76 152.05 56.47 152.43
  Q 50.55 160.01 50.22 169.75
  Z"
/>
<path fill="#bdc6ce" d="
  M 249.00 160.81
  Q 249.07 160.95 249.09 161.07
  A 0.37 0.35 -22.7 0 1 248.94 161.41
  Q 248.63 161.61 248.63 161.36
  Q 248.63 160.98 248.17 161.57
  Q 246.54 163.69 243.86 164.13
  A 0.61 0.60 -8.5 0 0 243.36 164.80
  Q 243.51 166.03 243.04 166.85
  L 242.90 164.68
  A 0.47 0.47 0.0 0 0 242.29 164.26
  C 236.46 166.13 230.99 168.06 224.87 169.81
  Q 218.08 171.76 211.42 174.13
  Q 190.70 181.51 170.00 188.91
  Q 169.60 177.28 178.63 171.16
  C 180.83 169.68 183.94 169.06 186.79 168.05
  Q 209.35 160.02 231.91 152.03
  Q 235.74 150.68 239.25 151.01
  C 244.45 151.51 245.57 157.63 249.00 160.81
  Z"
/>
<path fill="#fdfeff" d="
  M 93.44 175.48
  L 93.36 176.35
  Q 93.31 176.91 92.75 176.95
  Q 91.58 177.04 91.00 176.93
  C 84.06 175.65 77.20 174.16 70.23 173.06
  Q 66.36 172.46 63.43 170.83
  Q 63.23 160.73 69.68 154.66
  Q 70.05 154.31 70.55 154.40
  L 98.99 159.83
  Q 99.87 160.00 99.30 160.70
  Q 93.89 167.37 93.44 175.48
  Z"
/>
<path fill="#fdfeff" d="
  M 155.02 189.02
  L 106.02 179.98
  Q 105.28 169.66 112.86 163.07
  Q 113.24 162.74 113.74 162.83
  L 160.01 171.23
  A 0.26 0.25 -66.5 0 1 160.16 171.63
  Q 154.49 179.48 155.02 189.02
  Z"
/>
<path fill="#fdfeff" d="
  M 243.04 166.85
  Q 242.57 172.24 239.90 179.13
  Q 224.52 185.90 207.50 191.00
  Q 202.07 192.62 187.26 198.07
  Q 181.82 200.07 179.50 199.97
  C 173.70 199.74 170.54 194.39 170.00 188.91
  Q 190.70 181.51 211.42 174.13
  Q 218.08 171.76 224.87 169.81
  C 230.99 168.06 236.46 166.13 242.29 164.26
  A 0.47 0.47 0.0 0 1 242.90 164.68
  L 243.04 166.85
  Z"
/>
<path fill="#bdc6ce" d="
  M 23.95 164.94
  L 50.22 169.75
  Q 50.17 177.24 53.49 184.18
  Q 53.74 184.70 53.17 184.60
  Q 42.40 182.74 31.75 180.75
  Q 29.64 180.36 27.24 176.99
  Q 23.42 171.61 23.95 164.94
  Z"
/>
<path fill="#bdc6ce" d="
  M 63.43 170.83
  Q 66.36 172.46 70.23 173.06
  C 77.20 174.16 84.06 175.65 91.00 176.93
  Q 91.58 177.04 92.75 176.95
  Q 93.31 176.91 93.36 176.35
  L 93.44 175.48
  Q 92.70 183.93 96.15 191.26
  Q 96.30 191.59 95.94 191.54
  Q 82.56 189.92 69.24 187.51
  Q 67.34 187.17 66.03 184.66
  Q 62.53 177.96 63.43 170.83
  Z"
/>
<path fill="#bdc6ce" d="
  M 106.02 179.98
  L 155.02 189.02
  Q 155.67 196.83 159.94 202.35
  Q 160.69 203.31 159.49 203.09
  Q 136.27 198.82 112.75 194.71
  Q 111.51 194.49 110.24 193.01
  Q 105.53 187.50 106.02 179.98
  Z"
/>
<path fill="#bdc6ce" d="
  M 252.55 217.44
  C 252.04 209.27 249.82 197.98 238.22 202.20
  Q 228.89 205.60 219.55 208.97
  C 217.00 209.89 213.99 210.56 211.24 211.51
  Q 195.72 216.89 179.26 222.58
  Q 183.16 215.08 189.96 212.17
  C 193.25 210.75 197.41 209.99 200.65 208.83
  Q 216.23 203.23 231.78 197.54
  C 239.67 194.65 247.02 192.34 252.04 200.74
  Q 256.78 208.66 252.55 217.44
  Z"
/>
<path fill="#fdfeff" d="
  M 28.93 215.90
  L 20.26 214.54
  Q 20.52 201.80 31.24 196.04
  C 33.48 194.84 35.61 195.08 37.94 195.65
  A 0.40 0.40 0.0 0 1 38.12 196.33
  Q 29.99 204.27 28.93 215.90
  Z"
/>
<path fill="#fdfeff" d="
  M 54.33 219.81
  L 43.96 218.40
  C 43.92 211.21 47.33 202.42 54.00 198.61
  Q 54.48 198.34 55.03 198.43
  L 61.52 199.51
  A 0.69 0.69 0.0 0 1 61.93 200.64
  Q 54.95 208.94 54.33 219.81
  Z"
/>
<path fill="#fdfeff" d="
  M 252.55 217.44
  C 248.90 229.40 237.96 229.66 228.11 233.26
  Q 198.68 244.00 190.27 246.78
  C 182.83 249.24 177.59 245.32 176.18 237.95
  Q 174.57 229.47 179.26 222.58
  Q 195.72 216.89 211.24 211.51
  C 213.99 210.56 217.00 209.89 219.55 208.97
  Q 228.89 205.60 238.22 202.20
  C 249.82 197.98 252.04 209.27 252.55 217.44
  Z"
/>
<path fill="#fdfeff" d="
  M 110.70 229.12
  L 69.32 222.81
  Q 68.91 222.75 68.80 222.36
  Q 68.71 222.06 68.53 221.98
  C 68.49 215.54 71.15 206.30 76.79 202.52
  Q 77.21 202.24 77.70 202.33
  L 116.75 209.57
  A 0.29 0.29 0.0 0 1 116.92 210.03
  Q 110.75 218.10 110.70 229.12
  Z"
/>
<path fill="#fdfeff" d="
  M 129.87 231.59
  L 123.47 230.43
  C 123.52 224.04 125.12 215.89 130.42 211.59
  Q 130.82 211.27 131.32 211.37
  L 135.74 212.26
  Q 136.41 212.39 136.03 212.96
  Q 130.40 221.36 129.87 231.59
  Z"
/>
<path fill="#bdc6ce" d="
  M 28.93 215.90
  Q 28.55 224.13 31.56 231.91
  Q 31.76 232.42 31.24 232.27
  C 23.20 229.93 19.85 222.43 20.26 214.54
  L 28.93 215.90
  Z"
/>
<path fill="#fdfeff" d="
  M 160.28 236.17
  L 142.19 232.86
  Q 142.23 223.79 147.46 215.97
  Q 148.59 214.28 150.52 214.64
  Q 157.55 215.95 164.48 217.15
  A 0.32 0.32 0.0 0 1 164.69 217.64
  Q 159.63 225.68 160.28 236.17
  Z"
/>
<path fill="#bdc6ce" d="
  M 43.96 218.40
  L 54.33 219.81
  Q 54.04 229.10 58.44 237.03
  A 0.17 0.17 0.0 0 1 58.27 237.29
  L 49.36 236.27
  A 0.57 0.55 -14.7 0 1 48.99 236.06
  Q 43.01 228.40 43.96 218.40
  Z"
/>
<path fill="#bdc6ce" d="
  M 68.53 221.98
  Q 68.71 222.06 68.80 222.36
  Q 68.91 222.75 69.32 222.81
  L 110.70 229.12
  Q 110.50 237.15 114.38 244.48
  Q 114.82 245.32 113.89 245.19
  L 74.21 239.84
  A 1.04 1.03 -13.6 0 1 73.50 239.41
  Q 67.95 231.52 68.53 221.98
  Z"
/>
<path fill="#b0b9c2" d="
  M 267.22 229.62
  C 260.29 245.38 254.14 255.47 238.82 260.83
  C 229.65 264.03 218.17 266.91 211.42 268.89
  Q 196.49 273.26 183.00 276.28
  C 168.89 279.43 153.56 278.54 138.72 276.80
  C 107.23 273.10 75.80 269.35 44.52 264.12
  C 28.79 261.49 15.99 253.96 9.00 238.73
  Q 6.32 232.88 5.73 230.85
  Q 14.22 243.56 27.27 249.09
  Q 32.81 251.45 46.58 253.55
  C 55.32 254.89 63.87 256.24 72.83 257.36
  C 89.04 259.39 105.54 261.95 121.44 263.59
  Q 139.47 265.44 157.51 267.05
  C 167.83 267.97 177.94 268.39 186.50 265.97
  C 198.30 262.64 210.96 258.35 220.80 255.19
  C 227.69 252.97 240.18 250.45 248.55 246.33
  Q 259.12 241.12 267.22 229.62
  Z"
/>
<path fill="#bdc6ce" d="
  M 123.47 230.43
  L 129.87 231.59
  Q 129.95 239.48 132.96 245.74
  Q 133.80 247.48 131.87 247.33
  L 131.03 247.26
  A 4.45 4.42 -13.9 0 1 127.66 245.24
  Q 123.34 238.53 123.47 230.43
  Z"
/>
<path fill="#bdc6ce" d="
  M 142.19 232.86
  L 160.28 236.17
  Q 160.90 243.82 165.40 250.76
  A 0.43 0.42 -12.2 0 1 164.98 251.41
  L 147.55 249.04
  Q 146.97 248.96 146.64 248.48
  Q 141.83 241.37 142.19 232.86
  Z"
/>
</svg>
