<svg width="512" height="512" viewBox="0 0 512 512" fill="none" xmlns="http://www.w3.org/2000/svg">
<g clip-path="url(#clip0_232_1208)">
<path d="M277.818 42.3096C299.181 42.3457 313.513 67.4046 301.692 85.7655C300.748 87.2339 301.142 88.0102 302.876 88.0944L312.831 88.5638C314.589 88.6481 315.898 87.9139 316.759 86.3613C323.683 73.8499 320.723 57.4569 312.436 46.1551C303.36 33.7581 291.074 27.5716 275.576 27.5957C222.938 27.6679 169.54 27.722 115.383 27.7581C110.624 27.7581 108.166 30.1533 108.011 34.9436L107.939 36.6587C107.915 37.404 108.04 38.1466 108.307 38.8422C108.574 39.5378 108.977 40.1723 109.493 40.7079C110.008 41.2435 110.625 41.6694 111.307 41.96C111.99 42.2507 112.723 42.4003 113.464 42.3999C169.989 42.2555 224.773 42.2254 277.818 42.3096Z" stroke="#758794" stroke-width="2"/>
<path d="M334.194 48.7007C337.374 58.2573 338.618 67.3324 337.924 75.9261" stroke="#667D8C" stroke-width="2"/>
<path d="M337.924 75.9261L334.194 90.9108C333.895 92.1265 334.355 92.8426 335.575 93.0593C365.685 98.3551 395.519 103.555 425.079 108.658C431.154 109.705 435.811 109.675 439.052 108.568C445.186 106.485 449.575 101.978 452.218 95.0452" stroke="#415B6D" stroke-width="2"/>
<path d="M452.218 95.0452C454.992 84.8026 454.298 75.8298 450.137 68.1268" stroke="#667D8C" stroke-width="2"/>
<path d="M450.137 68.1267C437.832 46.5884 418.138 46.3356 396.99 43.2123C372.291 39.5834 347.718 35.3588 323.216 31.1342C321.781 30.8935 321.566 31.3027 322.571 32.3619C327.378 37.417 331.252 42.8633 334.194 48.7007" stroke="#88969D" stroke-width="2"/>
<path d="M450.137 68.1268L334.194 48.7007" stroke="#DCE5ED" stroke-width="2"/>
<path d="M452.218 95.0452L418.586 88.8166" stroke="#95A9BC" stroke-width="2"/>
<path d="M418.586 88.8166C418.784 83.5088 420.075 72.0445 416.882 67.9824C413.743 63.9924 405.797 63.9202 402.999 68.5601C400.883 72.0445 401.887 80.909 401.977 85.5128" stroke="#667D8C" stroke-width="2"/>
<path d="M401.977 85.5127C393.236 85.609 384.578 84.0503 376.004 80.8367" stroke="#95A9BC" stroke-width="2"/>
<path d="M376.004 80.8368L375.897 65.0576C375.861 59.8581 373.26 57.3546 368.094 57.5472L366.91 57.6013C362.032 57.7819 359.544 60.3275 359.449 65.2382L359.162 80.0424" stroke="#667D8C" stroke-width="2"/>
<path d="M359.162 80.0424L337.925 75.9261" stroke="#95A9BC" stroke-width="2"/>
<path d="M418.586 88.8166C417.522 93.0653 414.802 95.1957 410.425 95.2077C403.848 95.2198 401.032 91.9881 401.977 85.5128" stroke="#415B6D" stroke-width="2"/>
<path d="M376.004 80.8367C374.175 91.0011 358.713 90.1887 359.162 80.0424" stroke="#415B6D" stroke-width="2"/>
<path d="M125.517 69.6433C126.274 69.0697 127.193 68.7592 128.136 68.7587C135.239 68.7587 142.42 68.7587 149.678 68.7587C162.987 68.7587 159.22 78.2189 159.651 87.1737C159.687 87.8597 160.04 88.1967 160.709 88.1847C197.013 88.1125 233.317 88.1125 269.621 88.1847C277.675 88.2028 283.863 86.8848 287.038 79.4105C290.302 71.7556 286.572 57.9263 276.473 57.9443C221.264 57.9804 166.132 57.9504 111.078 57.8541C110.949 57.8547 110.821 57.8899 110.71 57.956C110.598 58.0221 110.505 58.1168 110.442 58.2304C110.378 58.344 110.345 58.4726 110.347 58.6031C110.348 58.7336 110.384 58.8614 110.45 58.9734C115.748 68.2291 115.963 77.563 111.096 86.9751C110.678 87.7815 110.917 88.1787 111.814 88.1667L121.302 88.1305C121.912 88.1305 122.217 87.8236 122.217 87.2098C122.235 81.6492 120.638 73.3985 125.517 69.6433Z" stroke="#758794" stroke-width="2"/>
<path d="M307.324 121.982L312.813 126.802" stroke="#88969D" stroke-width="2"/>
<path d="M312.813 126.802C322.929 140.812 324.035 155.105 316.131 169.68" stroke="#667D8C" stroke-width="2"/>
<path d="M316.131 169.68C310.912 176.866 307.486 181.758 299.091 185.586C297.154 186.464 297.22 187.156 299.289 187.662C308.126 189.816 317.495 191.55 327.396 192.862C335.593 193.945 342.696 181.253 345.314 175.782" stroke="#415B6D" stroke-width="2"/>
<path d="M345.315 175.782C350.498 162.477 353.099 147.925 349.279 133.789" stroke="#667D8C" stroke-width="2"/>
<path d="M349.279 133.789C346.175 118.57 332.651 109.163 317.943 105.751" stroke="#88969D" stroke-width="2"/>
<path d="M317.943 105.751C314.439 104.752 309.584 104.247 303.378 104.235C223.691 104.09 142.796 104.024 60.6937 104.036C55.9943 104.036 53.5131 106.401 53.25 111.131L53.1424 112.846C53.1034 113.574 53.2122 114.303 53.4624 114.987C53.7126 115.671 54.0989 116.297 54.5975 116.826C55.0961 117.355 55.6966 117.776 56.3624 118.063C57.0282 118.351 57.7452 118.498 58.4696 118.497C135.801 118.377 212.804 118.335 289.477 118.371C296.401 118.371 302.35 119.574 307.324 121.982" stroke="#758794" stroke-width="2"/>
<path d="M317.943 105.751C312.705 109.506 309.871 112.533 309.441 114.832C308.998 117.228 308.293 119.611 307.324 121.982" stroke="#EBEFF5" stroke-width="2"/>
<path d="M349.278 133.789C349.027 133.945 348.89 134.162 348.866 134.439C348.83 134.8 348.633 134.987 348.274 134.999C347.939 134.999 347.676 134.89 347.485 134.674C347.293 134.433 347.042 134.295 346.731 134.258C335.754 132.91 324.448 130.425 312.813 126.802" stroke="#DCE5ED" stroke-width="2"/>
<path d="M345.314 175.782L316.131 169.68" stroke="#95A9BC" stroke-width="2"/>
<path d="M382.479 143.412C383.771 157.145 381.959 170.041 377.045 182.101" stroke="#667D8C" stroke-width="2"/>
<path d="M377.045 182.101C374.629 187.554 371.245 192.801 366.892 197.844C366.772 197.983 366.691 198.152 366.657 198.333C366.622 198.514 366.635 198.7 366.695 198.874C366.755 199.048 366.86 199.203 366.998 199.323C367.137 199.444 367.305 199.525 367.484 199.559L393.439 204.669C394.39 204.855 395.379 204.702 396.237 204.235C402.276 200.938 407.298 195.907 411.304 189.142" stroke="#415B6D" stroke-width="2"/>
<path d="M411.304 189.142C417.366 175.855 418.58 162.483 414.945 149.026" stroke="#667D8C" stroke-width="2"/>
<path d="M414.945 149.026C413.241 143.195 406.909 129.907 401.618 128.842C393.427 127.193 385.319 125.574 377.296 123.986C377.205 123.97 377.113 123.977 377.026 124.007C376.94 124.037 376.862 124.089 376.801 124.158C376.74 124.227 376.697 124.31 376.677 124.4C376.657 124.49 376.66 124.583 376.686 124.672L382.479 143.412" stroke="#88969D" stroke-width="2"/>
<path d="M414.945 149.027L382.479 143.412" stroke="#DCE5ED" stroke-width="2"/>
<path d="M411.304 189.142L377.045 182.101" stroke="#95A9BC" stroke-width="2"/>
<path d="M157.965 148.557C160.458 153.053 160.189 156.519 160.279 161.123" stroke="#667D8C" stroke-width="2"/>
<path d="M160.279 161.123L160.261 171.612C160.261 172.274 160.59 172.605 161.247 172.605C200.421 172.665 239.595 172.653 278.769 172.569C288.975 172.551 295.396 171.341 301.011 163.199C301.101 163.064 301.154 162.906 301.163 162.743C301.172 162.58 301.137 162.418 301.061 162.273C300.986 162.129 300.873 162.008 300.735 161.923C300.596 161.838 300.437 161.792 300.275 161.791L268.653 161.737C267.949 161.737 267.252 161.594 266.604 161.316C265.957 161.037 265.371 160.63 264.884 160.117C264.396 159.604 264.016 158.997 263.767 158.332C263.518 157.667 263.404 156.958 263.433 156.248L263.505 154.352C263.583 152.529 264.359 150.807 265.669 149.545C266.979 148.284 268.723 147.581 270.536 147.582L300.652 147.6C305.052 147.6 305.752 145.981 302.75 142.744L299.325 139.061C296.419 135.931 292.837 134.367 288.58 134.367L101.159 134.258C100.609 134.258 100.448 134.511 100.675 135.017C106.128 147.197 106.271 159.468 101.105 171.829C100.89 172.37 101.069 172.647 101.643 172.659L119.078 172.876C119.316 172.876 119.544 172.781 119.712 172.611C119.88 172.442 119.975 172.213 119.975 171.973C119.939 165.781 117.661 148.359 126.701 147.366C134.043 146.571 144.464 146.968 157.965 148.557" stroke="#88969D" stroke-width="2"/>
<path d="M160.279 161.123C166.054 161.881 174.843 161.755 175.83 155.58C176.5 151.44 174.544 149.321 169.965 149.225C166.018 149.141 162.019 148.918 157.965 148.557" stroke="#DCE5ED" stroke-width="2"/>
<path d="M433.42 153.396C435.357 166.322 433.892 178.936 429.025 191.237" stroke="#667D8C" stroke-width="2"/>
<path d="M429.025 191.237L418.963 207.81C418.664 208.316 418.784 208.689 419.322 208.93C430.245 213.804 441.384 204.47 446.657 194.847" stroke="#415B6D" stroke-width="2"/>
<path d="M446.657 194.847C453.82 182.258 455.255 169.048 450.962 155.219" stroke="#667D8C" stroke-width="2"/>
<path d="M450.962 155.219C447.124 144.892 440.128 134.854 428.272 134.132C427.483 134.084 427.262 134.415 427.608 135.125C430.586 141.263 432.523 147.354 433.42 153.396" stroke="#88969D" stroke-width="2"/>
<path d="M450.962 155.219C445.701 156.23 439.853 155.622 433.42 153.396" stroke="#DCE5ED" stroke-width="2"/>
<path d="M446.657 194.847L429.025 191.237" stroke="#95A9BC" stroke-width="2"/>
<path d="M133.589 169.897C133.574 170.487 133.785 171.061 134.179 171.498C134.574 171.935 135.12 172.202 135.705 172.244L142.216 172.677C142.526 172.697 142.836 172.653 143.128 172.547C143.42 172.442 143.688 172.278 143.914 172.065C144.141 171.852 144.322 171.595 144.447 171.309C144.571 171.023 144.636 170.715 144.638 170.402L144.656 163.524C144.656 162.934 144.431 162.367 144.027 161.94C143.623 161.513 143.071 161.259 142.485 161.231L136.19 160.906C135.886 160.889 135.582 160.933 135.296 161.036C135.01 161.139 134.747 161.299 134.523 161.506C134.299 161.713 134.118 161.963 133.992 162.241C133.865 162.52 133.795 162.821 133.786 163.127L133.589 169.897Z" stroke="#284353" stroke-width="2"/>
<path d="M280.33 269.482L316.634 276.74C317.626 276.945 318.517 276.728 319.306 276.09C324.352 272.094 328.281 267.027 331.091 260.889" stroke="#415B6D" stroke-width="2"/>
<path d="M331.091 260.889C334.798 250.634 335.73 240.614 333.889 230.829" stroke="#667D8C" stroke-width="2"/>
<path d="M333.889 230.829L327.736 215.122C327.509 214.532 327.091 214.177 326.481 214.057C319.139 212.528 311.821 210.94 304.526 209.291C299.899 208.243 297.961 206.33 294.356 203.369" stroke="#88969D" stroke-width="2"/>
<path d="M294.356 203.369C291.295 199.433 287.319 196.34 282.428 194.089C275.505 190.9 267.248 189.305 257.657 189.305C198.98 189.269 139.065 189.13 77.9131 188.89C73.2017 188.866 70.7981 191.225 70.7025 195.967L70.6666 197.682C70.6523 198.425 70.7852 199.164 71.0575 199.854C71.3298 200.545 71.7361 201.174 72.2524 201.703C72.7688 202.233 73.3848 202.653 74.0643 202.939C74.7437 203.225 75.4729 203.371 76.2091 203.369C138.414 203.285 200.385 203.411 262.124 203.748C266.919 203.772 271.546 205.451 276.007 208.785C288.778 218.354 292.616 234.909 283.54 248.323C281.065 251.97 278.111 253.788 274.679 253.775C258.381 253.739 242.088 253.733 225.802 253.757C170.784 253.854 115.012 253.806 58.4875 253.613C57.7515 253.61 57.0224 253.757 56.3444 254.046C55.6663 254.335 55.0532 254.76 54.542 255.295C54.0308 255.83 53.6322 256.463 53.3701 257.158C53.1079 257.852 52.9878 258.593 53.0168 259.336L53.0886 261.051C53.2799 265.829 55.7492 268.219 60.4965 268.219C121.29 268.255 181.922 268.086 242.393 267.713C255.284 267.641 267.929 268.231 280.329 269.482" stroke="#758794" stroke-width="2"/>
<path d="M294.356 203.369L303.647 225.792C303.851 226.273 304.191 226.628 304.67 226.857C305.339 227.17 305.925 227.314 306.428 227.29" stroke="#EBEFF5" stroke-width="2"/>
<path d="M306.428 227.29L304.724 227.706C304.181 227.838 303.707 228.17 303.393 228.637C303.078 229.103 302.945 229.672 303.02 230.233C304.239 239.104 302.864 247.011 298.894 253.956" stroke="#C9D6E4" stroke-width="2"/>
<path d="M298.894 253.956C294.709 261.876 288.521 267.051 280.33 269.482" stroke="#A4B4C5" stroke-width="2"/>
<path d="M331.091 260.889L298.894 253.956" stroke="#95A9BC" stroke-width="2"/>
<path d="M333.889 230.829C324.669 231.31 315.516 230.131 306.428 227.29" stroke="#DCE5ED" stroke-width="2"/>
<path d="M352.238 236.299C352.238 245.736 350.929 254.919 348.31 263.85" stroke="#667D8C" stroke-width="2"/>
<path d="M348.31 263.85C346.54 268.724 343.772 273.581 340.005 278.419C339.894 278.561 339.821 278.729 339.793 278.907C339.766 279.086 339.785 279.268 339.848 279.437C339.911 279.606 340.016 279.756 340.154 279.872C340.292 279.987 340.457 280.065 340.633 280.098C357.35 283.288 373.989 286.218 390.551 288.89C398.425 290.154 404.685 281.073 407.447 274.953" stroke="#415B6D" stroke-width="2"/>
<path d="M407.448 274.953C411.501 265.553 412.314 256.014 409.887 246.337" stroke="#667D8C" stroke-width="2"/>
<path d="M409.887 246.337C408.398 241.734 403.609 229.403 398.91 228.518C382.599 225.461 366.079 222.247 349.35 218.877C349.207 218.85 349.059 218.858 348.919 218.903C348.78 218.947 348.654 219.026 348.553 219.131C348.451 219.237 348.378 219.367 348.338 219.508C348.299 219.65 348.295 219.799 348.328 219.942L352.238 236.299" stroke="#88969D" stroke-width="2"/>
<path d="M409.887 246.337C401.564 246.133 393.415 245.031 385.439 243.033C374.617 240.337 363.55 238.093 352.238 236.299" stroke="#DCE5ED" stroke-width="2"/>
<path d="M407.447 274.953L348.31 263.85" stroke="#95A9BC" stroke-width="2"/>
<path d="M107.527 230.125L105.751 237.437C105.732 237.508 105.73 237.584 105.745 237.657C105.761 237.729 105.793 237.798 105.84 237.857C105.886 237.917 105.946 237.965 106.015 237.998C106.083 238.032 106.159 238.05 106.235 238.05C159.597 238.141 214.34 236.877 266.231 238.123C272.204 238.267 272.76 231.587 270.949 227.489" stroke="#758794" stroke-width="2"/>
<path d="M270.949 227.489C268.617 222.506 264.778 220.045 259.433 220.105C208.385 220.61 157.768 220.051 106.917 219.96C106.271 219.948 105.996 220.267 106.092 220.917L107.527 230.125" stroke="#667D8C" stroke-width="2"/>
<path d="M270.949 227.489C270.231 227.826 269.561 228.476 268.94 229.439C268.791 229.665 268.589 229.85 268.35 229.976C268.112 230.103 267.846 230.166 267.577 230.161C236.307 229.992 205.043 230.161 173.785 230.666C173.367 230.666 172.99 230.588 172.655 230.432C172.272 230.251 171.872 230.161 171.453 230.161L107.527 230.125" stroke="#C9D6E4" stroke-width="2"/>
<path d="M428.146 250.67C428.96 259.926 427.788 269.043 424.631 278.022" stroke="#667D8C" stroke-width="2"/>
<path d="M424.631 278.022L417.079 292.194C416.987 292.365 416.938 292.556 416.936 292.75C416.934 292.944 416.979 293.136 417.068 293.309C417.156 293.481 417.285 293.63 417.443 293.741C417.602 293.852 417.785 293.922 417.976 293.946C423.555 294.614 428.756 296.545 434.317 294.054C439.447 291.719 443.554 287.915 446.639 282.644" stroke="#415B6D" stroke-width="2"/>
<path d="M446.639 282.644C451.793 272.798 452.403 262.333 448.469 251.248" stroke="#667D8C" stroke-width="2"/>
<path d="M448.469 251.248C443.841 239.549 435.542 233.092 423.573 231.876C422.891 231.804 422.646 232.105 422.837 232.779L428.146 250.67" stroke="#88969D" stroke-width="2"/>
<path d="M448.469 251.248L447.985 253.378C447.865 253.872 447.56 254.076 447.07 253.992L428.146 250.67" stroke="#DCE5ED" stroke-width="2"/>
<path d="M446.639 282.644L424.631 278.022" stroke="#95A9BC" stroke-width="2"/>
<path d="M130.522 295.552C142.934 296.419 155.328 296.672 167.705 296.311C177.761 296.022 187.196 296.016 196.009 296.293C211.955 296.798 229.246 295.408 245.64 298.134C247.23 298.399 249.066 299.163 251.146 300.427C252.832 301.462 254.722 302.304 256.814 302.954" stroke="#284353" stroke-width="2"/>
<path d="M256.814 302.954C256.683 302.979 256.551 303.003 256.42 303.027" stroke="#88969D" stroke-width="2"/>
<path d="M256.42 303.027C257.544 304.7 258.674 306.349 259.81 307.973C271.935 325.323 264.079 348.234 246.232 356.863C239.679 360.029 233.766 361.606 228.492 361.594C172.242 361.473 115.7 361.377 58.8641 361.305C58.0902 361.305 57.3239 361.459 56.6098 361.76C55.8956 362.06 55.2478 362.5 54.7039 363.054C54.1599 363.608 53.7307 364.266 53.4411 364.988C53.1515 365.71 53.0073 366.484 53.0168 367.263L53.0526 369.05C53.1124 373.997 55.6056 376.476 60.5323 376.488C111.03 376.5 161.337 376.482 211.452 376.434C223.649 376.422 235.26 372.968 246.285 366.071C246.773 365.767 247.347 365.634 247.918 365.692L259.774 366.811" stroke="#667D8C" stroke-width="2"/>
<path d="M259.774 366.811C272.987 368.906 286.171 370.019 299.325 370.151C299.946 370.163 300.49 369.959 300.957 369.537C308.969 362.039 314.38 352.832 317.19 341.915" stroke="#415B6D" stroke-width="2"/>
<path d="M317.19 341.915C319.342 331.227 318.894 321.321 315.844 312.198" stroke="#667D8C" stroke-width="2"/>
<path d="M315.844 312.198L307.88 296.383C307.247 295.119 306.236 294.379 304.849 294.162C290.105 291.815 275.301 289.438 260.438 287.031C250.644 285.442 240.958 285.063 231.093 284.485" stroke="#88969D" stroke-width="2"/>
<path d="M231.093 284.485L128.423 284.666" stroke="#284353" stroke-width="2"/>
<path d="M128.423 284.666L75.671 284.142C74.9671 284.136 74.2694 284.275 73.6211 284.551C72.9729 284.826 72.3877 285.231 71.9019 285.742C71.416 286.253 71.0399 286.859 70.7965 287.521C70.5532 288.184 70.448 288.89 70.4872 289.595L70.5769 291.165C70.828 295.51 73.112 297.653 77.4288 297.592C93.9665 297.364 110.241 297.298 126.253 297.394C127.233 297.394 128.656 296.78 130.522 295.552" stroke="#667D8C" stroke-width="2"/>
<path d="M128.423 284.666C131.747 287.771 132.447 291.4 130.522 295.552" stroke="#7C91A3" stroke-width="2"/>
<path d="M231.093 284.485C230.627 284.413 230.364 284.401 230.304 284.449C230.162 284.577 230.056 284.741 229.999 284.925C229.942 285.108 229.935 285.303 229.979 285.49C230.023 285.677 230.117 285.848 230.25 285.986C230.383 286.124 230.55 286.223 230.734 286.273C241.138 289.005 249.831 294.565 256.814 302.954" stroke="#9DABB4" stroke-width="2"/>
<path d="M315.844 312.198L256.42 303.027" stroke="#DCE5ED" stroke-width="2"/>
<path d="M317.19 341.915L286.589 336.751C286.075 336.661 285.544 336.738 285.073 336.972C284.603 337.205 284.217 337.583 283.971 338.051C278.123 349.317 271.056 359.445 259.774 366.811" stroke="#95A9BC" stroke-width="2"/>
<path d="M335.557 316.188C337.076 325.528 336.842 334.651 334.857 343.558" stroke="#667D8C" stroke-width="2"/>
<path d="M334.857 343.558C332.573 352.392 328.902 360.673 323.844 368.4C323.33 369.194 323.533 369.658 324.454 369.79L354.964 374.141C355.507 374.22 356.061 374.164 356.579 373.978C357.098 373.793 357.565 373.483 357.942 373.076C364.782 365.71 368.836 357.874 370.103 349.57" stroke="#415B6D" stroke-width="2"/>
<path d="M370.103 349.57C371.765 338.268 371.06 328.537 367.986 320.376" stroke="#667D8C" stroke-width="2"/>
<path d="M367.987 320.377C365.296 313.468 362.049 307.925 358.247 303.749C357.98 303.446 357.613 303.242 357.207 303.171L330.373 297.954C330.2 297.923 330.021 297.942 329.857 298.008C329.694 298.073 329.552 298.184 329.449 298.325C329.346 298.467 329.285 298.635 329.274 298.808C329.263 298.982 329.302 299.155 329.387 299.308C332.448 304.808 334.505 310.435 335.557 316.188" stroke="#88969D" stroke-width="2"/>
<path d="M367.986 320.376C357.165 319.979 346.355 318.583 335.557 316.188" stroke="#DCE5ED" stroke-width="2"/>
<path d="M370.103 349.57L334.857 343.558" stroke="#95A9BC" stroke-width="2"/>
<path d="M387.573 324.854C389.152 334.098 388.907 343.245 386.838 352.296" stroke="#667D8C" stroke-width="2"/>
<path d="M386.838 352.296C385.618 355.822 384.291 360.137 382.856 365.241C381.876 368.719 380.213 372.029 377.87 375.17C377.782 375.291 377.727 375.433 377.709 375.582C377.691 375.73 377.71 375.881 377.766 376.02C377.821 376.159 377.911 376.281 378.027 376.376C378.142 376.47 378.279 376.534 378.426 376.56C386.031 377.914 397.403 380.045 404.219 377.535C412.326 374.52 418.497 366.107 420.523 358.127" stroke="#415B6D" stroke-width="2"/>
<path d="M420.523 358.127C423.106 346.958 422.765 336.162 419.501 325.739" stroke="#667D8C" stroke-width="2"/>
<path d="M419.501 325.739C411.716 310.158 400.362 308.082 382.426 306.637C381.923 306.601 381.75 306.824 381.905 307.305L387.573 324.854" stroke="#88969D" stroke-width="2"/>
<path d="M419.501 325.739C419.537 326.87 419.178 327.755 418.425 328.392C417.851 328.862 417.02 329.03 415.932 328.898C406.724 327.706 397.271 326.358 387.573 324.854" stroke="#DCE5ED" stroke-width="2"/>
<path d="M420.523 358.127L386.838 352.296" stroke="#95A9BC" stroke-width="2"/>
<path d="M89.4643 312.469C94.5763 322.742 95.1324 334.567 89.8589 344.894C89.5241 345.556 89.7274 345.887 90.4688 345.887L96.6032 345.815C97.3326 345.803 97.7033 345.429 97.7152 344.695C97.7511 338.719 96.2624 327.562 104.28 326.1C108.382 325.341 115.891 325.311 126.809 326.009C138.575 326.768 136.261 336.264 136.261 344.695C136.261 344.835 136.289 344.974 136.343 345.103C136.397 345.232 136.477 345.349 136.577 345.448C136.677 345.547 136.795 345.626 136.926 345.679C137.056 345.733 137.196 345.76 137.338 345.76C165.498 345.7 193.755 345.73 222.107 345.851C230.154 345.887 235.798 345.135 239.039 343.594C250.931 337.943 251.667 319.402 239.039 313.317C236.683 312.174 232.851 311.602 227.542 311.602C181.719 311.626 135.879 311.614 90.0204 311.566C89.3507 311.566 89.1654 311.867 89.4643 312.469Z" stroke="#88969D" stroke-width="2"/>
<path d="M255.577 458.327C252.683 458.796 251.679 459.103 252.563 459.247" stroke="#415B6D" stroke-width="2"/>
<path d="M252.563 459.247L72.4424 459.266C71.7176 459.266 71.0011 459.421 70.3394 459.718C69.6778 460.016 69.0858 460.451 68.6019 460.994C68.1181 461.537 67.7532 462.177 67.5311 462.871C67.3089 463.566 67.2344 464.299 67.3125 465.025L67.4918 466.758C68.006 471.56 70.6547 473.961 75.4378 473.961L227.219 473.943" stroke="#667D8C" stroke-width="2"/>
<path d="M227.219 473.943C261.711 474.72 289.675 478.258 311.504 452.387" stroke="#415B6D" stroke-width="2"/>
<path d="M311.504 452.387C319.635 438.558 320.903 424.259 315.306 409.491" stroke="#667D8C" stroke-width="2"/>
<path d="M315.306 409.491L307.737 394.181C307.452 393.608 307.027 393.119 306.502 392.762C305.977 392.405 305.37 392.191 304.741 392.141L283.863 390.516" stroke="#88969D" stroke-width="2"/>
<path d="M283.863 390.516L266.716 389.018C266.532 389.001 266.349 389.036 266.184 389.119C266.02 389.201 265.881 389.329 265.783 389.487C265.685 389.645 265.632 389.828 265.629 390.016C265.625 390.204 265.672 390.389 265.765 390.552C267.397 393.333 269.854 395.427 271.343 398.027C283.433 419.294 278.733 447.278 255.577 458.327" stroke="#284353" stroke-width="2"/>
<path d="M283.863 390.516C290.117 395.764 295.067 401.607 298.715 408.046" stroke="#9DABB4" stroke-width="2"/>
<path d="M298.715 408.047C305.65 425.583 301.351 440.363 285.818 452.387" stroke="#7C91A3" stroke-width="2"/>
<path d="M285.818 452.387C280.306 455.42 273.902 457.695 266.608 459.211C264.719 459.609 261.042 459.314 255.577 458.327" stroke="#566F84" stroke-width="2"/>
<path d="M311.504 452.387H285.818" stroke="#95A9BC" stroke-width="2"/>
<path d="M315.306 409.491L298.715 408.047" stroke="#DCE5ED" stroke-width="2"/>
<path d="M227.219 473.943C231.237 473.311 235.272 473.077 238.824 471.109C244.073 468.184 248.653 464.23 252.563 459.247" stroke="#95A9BC" stroke-width="2"/>
<path d="M73.4109 404.779C75.3601 411.29 75.9939 417.946 75.3123 424.746" stroke="#88969D" stroke-width="2"/>
<path d="M75.3123 424.746C74.1763 430.752 72.0717 436.602 68.9985 442.295C68.9187 442.448 68.8793 442.619 68.8841 442.792C68.8888 442.965 68.9377 443.134 69.0259 443.283C69.1141 443.431 69.2387 443.555 69.3878 443.641C69.5369 443.727 69.7055 443.773 69.8774 443.775L201.964 443.739" stroke="#667D8C" stroke-width="2"/>
<path d="M201.964 443.739C214.113 443.378 226.28 443.3 238.465 443.504C246.447 443.649 253.801 442.818 257.855 436.247C264.491 425.499 263.594 415.003 255.164 404.761" stroke="#88969D" stroke-width="2"/>
<path d="M255.164 404.761C248.85 396.829 241.305 392.863 232.528 392.863C178.419 392.899 123.849 392.839 68.8191 392.683C68.6962 392.682 68.5751 392.713 68.4675 392.772C68.3599 392.832 68.2693 392.919 68.2045 393.024C68.1397 393.129 68.1028 393.249 68.0974 393.373C68.0919 393.496 68.1181 393.619 68.1734 393.73L73.4109 404.779" stroke="#667D8C" stroke-width="2"/>
<path d="M255.164 404.761L73.4109 404.778" stroke="#DCE5ED" stroke-width="2"/>
<path d="M201.964 443.739L201.175 443.721C200.706 443.706 200.249 443.574 199.845 443.335C199.442 443.096 199.104 442.759 198.863 442.355C198.622 441.951 198.485 441.492 198.466 441.021C198.447 440.55 198.546 440.082 198.753 439.659C199.674 437.805 200.152 435.795 200.188 433.629" stroke="#DCE5ED" stroke-width="2"/>
<path d="M200.188 433.629C208.78 429.513 204.816 419.475 196.206 419.475C162.581 419.499 128.943 419.493 95.2938 419.457C90.9352 419.457 88.0474 421.045 86.9353 425.216" stroke="#88969D" stroke-width="2"/>
<path d="M86.9353 425.216L75.3123 424.746" stroke="#DCE5ED" stroke-width="2"/>
<path d="M200.188 433.629C165.654 433.834 131.143 433.936 96.657 433.936C90.2596 433.936 87.019 431.029 86.9353 425.216" stroke="#667D8C" stroke-width="2"/>
<path d="M334.588 409.563C337.757 422.092 337.315 434.453 333.261 446.646" stroke="#667D8C" stroke-width="2"/>
<path d="M333.261 446.646C329.088 456.371 322.971 464.808 314.912 471.958C314.825 472.034 314.764 472.135 314.735 472.247C314.706 472.359 314.712 472.477 314.75 472.586C314.789 472.694 314.859 472.789 314.952 472.857C315.045 472.926 315.155 472.964 315.27 472.969L330.535 473.366C331.025 473.39 331.455 473.239 331.826 472.914C340.884 465.278 346.947 459.5 351.503 449.751" stroke="#415B6D" stroke-width="2"/>
<path d="M351.503 449.751C355.987 436.463 355.718 423.633 350.696 411.26" stroke="#667D8C" stroke-width="2"/>
<path d="M350.695 411.26L344.22 398.46C343.811 397.652 343.212 396.956 342.475 396.431C341.738 395.906 340.884 395.568 339.987 395.445L330.265 394.127C328.603 393.898 328.107 394.554 328.777 396.095L334.588 409.563" stroke="#88969D" stroke-width="2"/>
<path d="M350.695 411.26C345.302 412.042 339.933 411.477 334.588 409.563" stroke="#DCE5ED" stroke-width="2"/>
<path d="M351.503 449.751L333.261 446.646" stroke="#95A9BC" stroke-width="2"/>
<path d="M370.408 412.885C372.596 422.754 373.069 432.088 371.825 440.887" stroke="#667D8C" stroke-width="2"/>
<path d="M371.825 440.887C368.614 453.56 364.919 462.84 355.7 471.957C354.851 472.8 355.024 473.233 356.22 473.257C374.719 473.667 392.775 473.715 410.389 473.402C426.496 473.113 437.94 466.848 445.778 452.784" stroke="#415B6D" stroke-width="2"/>
<path d="M445.778 452.784C450.358 440.026 450.292 427.828 445.581 416.189" stroke="#667D8C" stroke-width="2"/>
<path d="M445.581 416.189C439.231 405.23 433.348 399.832 420.559 398.911C401.403 397.527 382.3 396.197 363.251 394.921C363.144 394.915 363.037 394.937 362.941 394.984C362.844 395.032 362.762 395.103 362.701 395.192C362.639 395.281 362.602 395.384 362.591 395.491C362.581 395.599 362.598 395.707 362.641 395.806L370.408 412.885" stroke="#88969D" stroke-width="2"/>
<path d="M445.581 416.189C443.01 417.272 439.704 417.591 435.662 417.146C416.506 415.027 394.754 413.607 370.408 412.885" stroke="#DCE5ED" stroke-width="2"/>
<path d="M445.778 452.784C426.586 451.954 406.909 448.325 387.717 446.375C382.892 445.87 381.331 444.877 377.87 441.898C376.363 440.622 374.348 440.285 371.825 440.887" stroke="#95A9BC" stroke-width="2"/>
<path d="M250.449 74.4283C250.453 73.6863 250.312 72.9507 250.033 72.2636C249.755 71.5765 249.344 70.9513 248.826 70.4239C248.307 69.8964 247.69 69.4769 247.011 69.1893C246.331 68.9017 245.602 68.7517 244.864 68.7478L201.028 68.5169C199.539 68.5091 198.108 69.0969 197.049 70.151C195.991 71.2052 195.392 72.6394 195.384 74.138L195.379 75.1852C195.375 75.9273 195.516 76.6628 195.795 77.3499C196.073 78.037 196.484 78.6621 197.002 79.1896C197.521 79.7171 198.138 80.1366 198.817 80.4242C199.497 80.7118 200.226 80.8618 200.963 80.8657L244.8 81.0966C246.289 81.1044 247.72 80.5166 248.779 79.4625C249.837 78.4083 250.436 76.9742 250.444 75.4755L250.449 74.4283Z" stroke="#A4B4C5" stroke-width="2"/>
<path d="M217.643 330.15C217.653 329.245 217.485 328.346 217.149 327.506C216.814 326.665 216.317 325.9 215.687 325.253C215.058 324.606 214.308 324.09 213.48 323.734C212.652 323.379 211.763 323.191 210.863 323.182L185.646 322.916C184.746 322.906 183.853 323.075 183.018 323.413C182.184 323.751 181.423 324.251 180.78 324.885C180.137 325.518 179.625 326.273 179.272 327.106C178.919 327.939 178.732 328.834 178.723 329.74L178.715 330.462C178.706 331.368 178.873 332.266 179.209 333.107C179.545 333.947 180.041 334.713 180.671 335.36C181.301 336.007 182.051 336.523 182.878 336.878C183.706 337.233 184.595 337.421 185.495 337.431L210.712 337.696C211.612 337.706 212.505 337.537 213.34 337.199C214.175 336.861 214.935 336.361 215.578 335.728C216.221 335.094 216.734 334.339 217.087 333.506C217.44 332.673 217.626 331.778 217.636 330.872L217.643 330.15Z" stroke="#88969D" stroke-width="2"/>
<path d="M394.85 426.106C394.868 425.203 394.708 424.305 394.38 423.464C394.053 422.623 393.564 421.855 392.942 421.204C392.32 420.554 391.576 420.032 390.754 419.671C389.931 419.309 389.046 419.114 388.149 419.097L386.391 419.063C384.579 419.028 382.828 419.719 381.522 420.984C380.216 422.249 379.462 423.984 379.428 425.808L379.22 436.674C379.203 437.578 379.363 438.475 379.69 439.316C380.018 440.157 380.506 440.925 381.129 441.576C381.751 442.227 382.495 442.748 383.317 443.11C384.139 443.471 385.025 443.666 385.922 443.684L387.679 443.718C389.491 443.753 391.243 443.062 392.549 441.797C393.855 440.532 394.608 438.796 394.643 436.973L394.85 426.106Z" stroke="#667D8C" stroke-width="2"/>
<path d="M421.143 427.201C421.151 426.31 420.984 425.425 420.652 424.599C420.321 423.772 419.83 423.02 419.209 422.384C418.589 421.748 417.85 421.241 417.034 420.893C416.219 420.545 415.344 420.362 414.458 420.354L411.732 420.33C410.846 420.322 409.968 420.49 409.146 420.824C408.325 421.158 407.577 421.651 406.946 422.276C406.314 422.901 405.811 423.645 405.465 424.465C405.119 425.286 404.937 426.167 404.929 427.059L404.837 437.674C404.829 438.565 404.996 439.449 405.328 440.276C405.659 441.103 406.15 441.855 406.77 442.491C407.391 443.127 408.13 443.633 408.946 443.982C409.761 444.33 410.636 444.513 411.522 444.521L414.248 444.545C415.134 444.553 416.012 444.385 416.834 444.051C417.655 443.717 418.403 443.224 419.034 442.599C419.666 441.974 420.169 441.23 420.515 440.409C420.861 439.589 421.043 438.708 421.051 437.816L421.143 427.201Z" stroke="#667D8C" stroke-width="2"/>
<path d="M0.103345 140.288C0.175092 106.239 6.25566 73.7596 29.2327 47.3647C45.7524 28.3719 64.9268 13.2427 89.0338 6.34611C105.033 1.77846 120.154 0.659119 138.808 0.550795C253.711 -0.171363 336.37 -0.183392 386.784 0.514693C393.206 0.598945 401.128 1.57385 410.55 3.43942C457.814 12.8275 495.642 50.3436 507.804 96.7964C512.503 114.778 511.821 137.815 511.786 157.692C511.642 233.934 512.557 310.302 511.427 386.544C510.476 450.311 465.993 504.78 401.134 511.008C397.343 511.381 389.271 511.598 376.919 511.658C313.1 511.959 249.275 512.061 185.444 511.965C153.576 511.929 130.946 511.724 117.553 511.351C56.5504 509.636 7.43949 460.421 0.964316 400.951C0.414255 395.896 0.121291 383.86 0.0854178 364.843C-0.0341607 289.992 -0.0281916 215.14 0.103345 140.288ZM277.818 42.3096C299.181 42.3457 313.513 67.4046 301.692 85.7654C300.748 87.2338 301.142 88.0101 302.876 88.0944L312.831 88.5638C314.589 88.6481 315.898 87.9139 316.759 86.3612C323.683 73.8498 320.723 57.4568 312.436 46.1551C303.36 33.758 291.074 27.5715 275.576 27.5956C222.938 27.6678 169.54 27.722 115.383 27.7581C110.624 27.7581 108.166 30.1532 108.011 34.9436L107.939 36.6587C107.915 37.404 108.04 38.1465 108.307 38.8421C108.574 39.5378 108.977 40.1722 109.492 40.7079C110.008 41.2435 110.625 41.6693 111.307 41.96C111.99 42.2507 112.723 42.4002 113.464 42.3998C169.988 42.2554 224.773 42.2253 277.818 42.3096ZM334.194 48.7007C337.374 58.2572 338.618 67.3324 337.924 75.926L334.194 90.9108C333.895 92.1264 334.355 92.8426 335.575 93.0592C365.685 98.355 395.519 103.555 425.079 108.658C431.154 109.705 435.811 109.675 439.052 108.568C445.186 106.485 449.575 101.978 452.218 95.0452C454.992 84.8026 454.298 75.8297 450.137 68.1267C437.832 46.5884 418.138 46.3356 396.99 43.2123C372.291 39.5834 347.718 35.3588 323.216 31.1342C321.781 30.8935 321.566 31.3027 322.571 32.3619C327.378 37.417 331.252 42.8632 334.194 48.7007ZM125.517 69.6432C126.274 69.0696 127.193 68.7591 128.136 68.7586C135.239 68.7586 142.42 68.7586 149.678 68.7586C162.987 68.7586 159.22 78.2189 159.651 87.1736C159.687 87.8597 160.04 88.1967 160.709 88.1847C197.013 88.1124 233.317 88.1124 269.621 88.1847C277.675 88.2027 283.863 86.8848 287.038 79.4104C290.302 71.7556 286.571 57.9262 276.473 57.9443C221.264 57.9804 166.132 57.9503 111.078 57.854C110.948 57.8547 110.821 57.8899 110.71 57.956C110.598 58.022 110.505 58.1167 110.442 58.2304C110.378 58.344 110.345 58.4726 110.347 58.6031C110.348 58.7335 110.384 58.8613 110.45 58.9734C115.748 68.229 115.963 77.5629 111.096 86.9751C110.678 87.7815 110.917 88.1787 111.814 88.1666L121.302 88.1305C121.912 88.1305 122.217 87.8236 122.217 87.2098C122.235 81.6491 120.638 73.3985 125.517 69.6432ZM307.324 121.982L312.813 126.802C322.929 140.812 324.035 155.105 316.131 169.68C310.912 176.866 307.486 181.758 299.091 185.586C297.154 186.464 297.22 187.156 299.289 187.662C308.125 189.816 317.494 191.55 327.396 192.861C335.593 193.945 342.696 181.253 345.314 175.782C350.498 162.477 353.099 147.925 349.278 133.789C346.175 118.569 332.651 109.163 317.943 105.751C314.439 104.752 309.584 104.247 303.378 104.235C223.691 104.09 142.796 104.024 60.6937 104.036C55.9943 104.036 53.5131 106.401 53.25 111.131L53.1424 112.846C53.1034 113.574 53.2122 114.303 53.4624 114.987C53.7126 115.671 54.0989 116.297 54.5975 116.826C55.0961 117.355 55.6966 117.776 56.3624 118.063C57.0282 118.351 57.7452 118.498 58.4696 118.497C135.801 118.377 212.804 118.335 289.477 118.371C296.401 118.371 302.35 119.574 307.324 121.982ZM382.479 143.412C383.771 157.145 381.959 170.041 377.045 182.101C374.629 187.554 371.245 192.801 366.892 197.844C366.772 197.983 366.691 198.152 366.656 198.333C366.622 198.514 366.635 198.7 366.695 198.874C366.755 199.048 366.86 199.203 366.998 199.323C367.137 199.444 367.304 199.525 367.484 199.559L393.439 204.669C394.39 204.855 395.379 204.702 396.237 204.235C402.276 200.938 407.298 195.907 411.304 189.142C417.366 175.855 418.58 162.483 414.945 149.026C413.241 143.195 406.909 129.907 401.618 128.842C393.427 127.193 385.319 125.574 377.296 123.986C377.205 123.97 377.113 123.977 377.026 124.007C376.94 124.037 376.862 124.089 376.801 124.158C376.74 124.227 376.697 124.31 376.677 124.4C376.657 124.49 376.66 124.583 376.686 124.672L382.479 143.412ZM157.965 148.557C160.458 153.052 160.189 156.519 160.279 161.123L160.261 171.612C160.261 172.274 160.59 172.605 161.247 172.605C200.421 172.665 239.595 172.653 278.769 172.569C288.975 172.551 295.396 171.341 301.011 163.199C301.101 163.064 301.154 162.906 301.163 162.743C301.172 162.58 301.137 162.418 301.061 162.273C300.986 162.129 300.873 162.008 300.735 161.923C300.596 161.838 300.437 161.792 300.275 161.791L268.653 161.736C267.949 161.737 267.252 161.594 266.604 161.316C265.956 161.037 265.371 160.63 264.884 160.117C264.396 159.604 264.016 158.997 263.767 158.332C263.518 157.667 263.404 156.958 263.433 156.248L263.505 154.352C263.583 152.529 264.359 150.807 265.669 149.545C266.979 148.284 268.723 147.58 270.536 147.582L300.652 147.6C305.052 147.6 305.752 145.981 302.75 142.744L299.325 139.061C296.419 135.931 292.837 134.367 288.58 134.367L101.159 134.258C100.609 134.258 100.448 134.511 100.675 135.017C106.128 147.197 106.271 159.468 101.105 171.829C100.89 172.37 101.069 172.647 101.643 172.659L119.078 172.876C119.316 172.876 119.544 172.781 119.712 172.611C119.88 172.442 119.975 172.212 119.975 171.973C119.939 165.781 117.661 148.358 126.701 147.365C134.043 146.571 144.464 146.968 157.965 148.557ZM433.42 153.396C435.357 166.322 433.892 178.936 429.025 191.237L418.963 207.81C418.664 208.316 418.783 208.689 419.322 208.929C430.245 213.804 441.384 204.47 446.657 194.847C453.82 182.258 455.255 169.048 450.962 155.219C447.123 144.892 440.128 134.854 428.272 134.132C427.483 134.084 427.262 134.415 427.608 135.125C430.586 141.263 432.523 147.353 433.42 153.396ZM133.589 169.897C133.573 170.487 133.785 171.061 134.179 171.498C134.574 171.935 135.12 172.202 135.705 172.244L142.216 172.677C142.526 172.697 142.836 172.653 143.128 172.547C143.42 172.442 143.688 172.278 143.914 172.065C144.141 171.852 144.322 171.595 144.446 171.309C144.571 171.023 144.636 170.714 144.638 170.402L144.656 163.524C144.656 162.934 144.431 162.367 144.027 161.94C143.623 161.513 143.071 161.259 142.485 161.231L136.19 160.906C135.886 160.889 135.582 160.933 135.296 161.036C135.01 161.139 134.747 161.299 134.523 161.506C134.299 161.713 134.118 161.963 133.992 162.241C133.865 162.52 133.795 162.821 133.786 163.127L133.589 169.897ZM280.329 269.482L316.634 276.74C317.626 276.945 318.517 276.728 319.306 276.09C324.352 272.094 328.28 267.027 331.091 260.889C334.797 250.634 335.73 240.614 333.889 230.829L327.736 215.122C327.509 214.532 327.091 214.177 326.481 214.057C319.139 212.528 311.82 210.939 304.526 209.291C299.899 208.243 297.961 206.33 294.356 203.369C291.295 199.433 287.319 196.34 282.428 194.089C275.505 190.9 267.248 189.305 257.657 189.305C198.98 189.269 139.065 189.13 77.9131 188.89C73.2017 188.866 70.7981 191.225 70.7025 195.967L70.6666 197.682C70.6522 198.425 70.7851 199.164 71.0575 199.854C71.3298 200.545 71.7361 201.174 72.2524 201.703C72.7688 202.233 73.3848 202.653 74.0642 202.939C74.7437 203.225 75.4729 203.371 76.2091 203.369C138.414 203.285 200.385 203.411 262.124 203.748C266.919 203.772 271.546 205.451 276.007 208.785C288.778 218.354 292.616 234.909 283.54 248.323C281.065 251.97 278.111 253.787 274.679 253.775C258.381 253.739 242.088 253.733 225.802 253.757C170.784 253.854 115.012 253.806 58.4875 253.613C57.7515 253.61 57.0224 253.757 56.3443 254.046C55.6663 254.335 55.0532 254.76 54.542 255.295C54.0308 255.83 53.6322 256.463 53.37 257.158C53.1079 257.852 52.9878 258.593 53.0168 259.336L53.0886 261.051C53.2799 265.829 55.7492 268.219 60.4964 268.219C121.29 268.255 181.922 268.086 242.393 267.713C255.284 267.641 267.929 268.231 280.329 269.482ZM352.238 236.299C352.238 245.735 350.929 254.919 348.31 263.85C346.54 268.724 343.772 273.581 340.005 278.419C339.894 278.561 339.821 278.729 339.793 278.907C339.766 279.086 339.785 279.268 339.848 279.437C339.911 279.606 340.016 279.756 340.154 279.872C340.292 279.987 340.456 280.065 340.633 280.098C357.35 283.288 373.989 286.218 390.551 288.89C398.425 290.154 404.685 281.073 407.447 274.953C411.501 265.553 412.314 256.014 409.887 246.337C408.398 241.733 403.609 229.403 398.909 228.518C382.599 225.461 366.079 222.247 349.35 218.877C349.207 218.85 349.059 218.858 348.919 218.903C348.78 218.947 348.654 219.026 348.553 219.131C348.451 219.237 348.377 219.367 348.338 219.508C348.299 219.65 348.295 219.799 348.328 219.942L352.238 236.299ZM107.527 230.125L105.751 237.437C105.732 237.508 105.73 237.584 105.745 237.656C105.761 237.729 105.793 237.798 105.84 237.857C105.886 237.917 105.946 237.965 106.015 237.998C106.083 238.032 106.159 238.05 106.235 238.05C159.597 238.141 214.34 236.877 266.231 238.123C272.204 238.267 272.76 231.587 270.949 227.489C268.617 222.506 264.778 220.045 259.433 220.105C208.385 220.61 157.768 220.051 106.917 219.96C106.271 219.948 105.996 220.267 106.092 220.917L107.527 230.125ZM428.146 250.67C428.96 259.926 427.788 269.043 424.631 278.022L417.079 292.194C416.987 292.365 416.938 292.556 416.936 292.75C416.934 292.944 416.979 293.136 417.068 293.309C417.156 293.481 417.285 293.63 417.443 293.741C417.602 293.852 417.785 293.922 417.976 293.945C423.555 294.613 428.756 296.545 434.317 294.054C439.447 291.719 443.554 287.915 446.639 282.644C451.793 272.798 452.403 262.333 448.469 251.248C443.841 239.549 435.542 233.092 423.573 231.876C422.891 231.804 422.646 232.105 422.837 232.779L428.146 250.67ZM130.522 295.552C142.934 296.419 155.328 296.672 167.705 296.311C177.761 296.022 187.196 296.016 196.009 296.292C211.955 296.798 229.246 295.408 245.64 298.134C247.23 298.399 249.066 299.163 251.146 300.427C252.832 301.462 254.722 302.304 256.814 302.954C256.683 302.978 256.551 303.003 256.42 303.027C257.544 304.7 258.674 306.349 259.81 307.973C271.935 325.323 264.079 348.234 246.232 356.864C239.679 360.029 233.766 361.606 228.492 361.594C172.243 361.473 115.7 361.377 58.8642 361.305C58.0902 361.305 57.324 361.459 56.6098 361.76C55.8956 362.06 55.2478 362.5 54.7039 363.054C54.16 363.608 53.7307 364.266 53.4411 364.988C53.1515 365.71 53.0073 366.484 53.0168 367.263L53.0527 369.05C53.1125 373.997 55.6057 376.476 60.5323 376.488C111.03 376.5 161.337 376.482 211.452 376.434C223.649 376.422 235.26 372.968 246.285 366.071C246.773 365.767 247.347 365.634 247.918 365.692L259.774 366.811C272.987 368.905 286.171 370.019 299.325 370.151C299.946 370.163 300.49 369.959 300.957 369.537C308.969 362.039 314.379 352.831 317.19 341.915C319.342 331.227 318.894 321.321 315.844 312.198L307.88 296.383C307.247 295.119 306.236 294.379 304.849 294.162C290.105 291.815 275.301 289.438 260.438 287.031C250.644 285.442 240.958 285.063 231.093 284.485L128.423 284.666L75.671 284.142C74.9671 284.136 74.2694 284.275 73.6211 284.55C72.9729 284.826 72.3877 285.231 71.9019 285.742C71.416 286.253 71.0399 286.859 70.7965 287.521C70.5532 288.184 70.4479 288.89 70.4872 289.594L70.5769 291.165C70.828 295.51 73.112 297.653 77.4288 297.592C93.9665 297.364 110.241 297.298 126.253 297.394C127.233 297.394 128.656 296.78 130.522 295.552ZM335.557 316.188C337.075 325.528 336.842 334.651 334.857 343.558C332.573 352.392 328.902 360.673 323.844 368.4C323.33 369.194 323.533 369.658 324.454 369.79L354.964 374.141C355.507 374.22 356.061 374.164 356.579 373.978C357.098 373.793 357.565 373.483 357.942 373.076C364.782 365.71 368.836 357.875 370.103 349.57C371.765 338.268 371.06 328.537 367.986 320.376C365.296 313.468 362.049 307.925 358.247 303.749C357.98 303.446 357.613 303.242 357.206 303.171L330.373 297.953C330.2 297.923 330.021 297.942 329.857 298.008C329.694 298.073 329.552 298.183 329.449 298.325C329.346 298.467 329.285 298.634 329.274 298.808C329.263 298.982 329.302 299.155 329.387 299.308C332.448 304.808 334.505 310.435 335.557 316.188ZM387.573 324.854C389.152 334.097 388.907 343.245 386.838 352.296C385.618 355.822 384.291 360.137 382.856 365.241C381.876 368.719 380.213 372.029 377.87 375.17C377.782 375.291 377.727 375.433 377.709 375.582C377.691 375.73 377.71 375.881 377.766 376.02C377.821 376.159 377.911 376.281 378.026 376.376C378.142 376.47 378.279 376.534 378.426 376.56C386.031 377.914 397.403 380.045 404.219 377.535C412.326 374.52 418.496 366.107 420.523 358.127C423.106 346.958 422.765 336.162 419.501 325.738C411.716 310.158 400.362 308.082 382.426 306.637C381.923 306.601 381.75 306.824 381.905 307.305L387.573 324.854ZM89.4643 312.469C94.5763 322.742 95.1324 334.567 89.859 344.894C89.5241 345.556 89.7274 345.887 90.4688 345.887L96.6032 345.815C97.3326 345.802 97.7033 345.429 97.7152 344.695C97.7511 338.719 96.2624 327.562 104.28 326.1C108.382 325.341 115.891 325.311 126.809 326.009C138.575 326.768 136.261 336.264 136.261 344.695C136.261 344.835 136.289 344.974 136.343 345.103C136.397 345.232 136.477 345.349 136.577 345.448C136.677 345.547 136.795 345.626 136.926 345.679C137.056 345.733 137.196 345.76 137.338 345.76C165.498 345.7 193.755 345.73 222.107 345.851C230.154 345.887 235.798 345.134 239.039 343.594C250.931 337.943 251.667 319.402 239.039 313.317C236.683 312.174 232.851 311.602 227.542 311.602C181.719 311.626 135.879 311.614 90.0204 311.566C89.3507 311.566 89.1654 311.867 89.4643 312.469ZM255.577 458.327C252.683 458.796 251.678 459.103 252.563 459.247L72.4423 459.266C71.7175 459.266 71.001 459.421 70.3394 459.718C69.6777 460.016 69.0857 460.451 68.6019 460.994C68.1181 461.537 67.7532 462.177 67.531 462.871C67.3089 463.566 67.2344 464.299 67.3124 465.025L67.4918 466.758C68.006 471.56 70.6546 473.961 75.4378 473.961L227.219 473.943C261.711 474.72 289.675 478.258 311.504 452.387C319.635 438.558 320.902 424.259 315.306 409.491L307.737 394.181C307.452 393.608 307.027 393.119 306.502 392.762C305.977 392.405 305.371 392.191 304.741 392.141L283.863 390.516L266.715 389.018C266.532 389.001 266.349 389.036 266.184 389.118C266.02 389.201 265.881 389.328 265.783 389.487C265.685 389.645 265.632 389.828 265.628 390.016C265.625 390.203 265.672 390.389 265.765 390.552C267.397 393.332 269.854 395.427 271.343 398.026C283.433 419.294 278.733 447.278 255.577 458.327ZM73.4109 404.779C75.36 411.29 75.9938 417.946 75.3122 424.746C74.1762 430.752 72.0716 436.602 68.9985 442.295C68.9186 442.448 68.8792 442.619 68.884 442.792C68.8888 442.965 68.9376 443.134 69.0259 443.283C69.1141 443.431 69.2387 443.555 69.3878 443.641C69.5369 443.727 69.7055 443.773 69.8774 443.775L201.964 443.739C214.113 443.378 226.28 443.3 238.465 443.504C246.447 443.649 253.801 442.818 257.855 436.247C264.491 425.499 263.594 415.003 255.164 404.761C248.85 396.829 241.305 392.863 232.528 392.863C178.419 392.899 123.849 392.839 68.8191 392.683C68.6962 392.682 68.5751 392.713 68.4675 392.772C68.3599 392.832 68.2693 392.919 68.2045 393.024C68.1397 393.129 68.1028 393.249 68.0973 393.373C68.0919 393.496 68.1181 393.619 68.1734 393.73L73.4109 404.779ZM334.588 409.563C337.757 422.092 337.315 434.453 333.261 446.646C329.088 456.371 322.971 464.808 314.912 471.957C314.825 472.034 314.764 472.135 314.735 472.246C314.706 472.358 314.712 472.477 314.75 472.585C314.789 472.694 314.859 472.789 314.952 472.857C315.045 472.926 315.156 472.964 315.27 472.968L330.535 473.366C331.025 473.39 331.455 473.239 331.826 472.914C340.884 465.277 346.947 459.5 351.503 449.751C355.987 436.463 355.718 423.633 350.695 411.26L344.22 398.46C343.811 397.652 343.212 396.956 342.475 396.431C341.738 395.906 340.884 395.568 339.987 395.445L330.265 394.127C328.603 393.898 328.107 394.554 328.777 396.095L334.588 409.563ZM370.408 412.885C372.596 422.754 373.069 432.088 371.825 440.887C368.614 453.56 364.919 462.84 355.7 471.957C354.851 472.8 355.024 473.233 356.22 473.257C374.719 473.667 392.775 473.715 410.389 473.402C426.496 473.113 437.94 466.848 445.778 452.784C450.358 440.026 450.292 427.828 445.581 416.189C439.231 405.23 433.348 399.832 420.559 398.911C401.403 397.527 382.3 396.197 363.251 394.921C363.144 394.915 363.037 394.937 362.941 394.984C362.844 395.032 362.762 395.103 362.701 395.192C362.639 395.281 362.602 395.384 362.591 395.491C362.581 395.599 362.598 395.707 362.641 395.806L370.408 412.885Z" fill="#122E3C"/>
<path d="M301.692 85.7655C313.513 67.4046 299.181 42.3457 277.818 42.3096C224.773 42.2254 169.989 42.2555 113.464 42.3999C112.723 42.4003 111.99 42.2507 111.307 41.96C110.625 41.6694 110.008 41.2435 109.493 40.7079C108.977 40.1723 108.574 39.5378 108.307 38.8422C108.04 38.1466 107.915 37.404 107.939 36.6587L108.011 34.9436C108.166 30.1533 110.624 27.7581 115.383 27.7581C169.54 27.722 222.938 27.6679 275.576 27.5957C291.074 27.5716 303.36 33.7581 312.436 46.1551C320.723 57.4569 323.683 73.8499 316.759 86.3613C315.898 87.9139 314.589 88.6481 312.831 88.5638L302.876 88.0944C301.142 88.0102 300.748 87.2339 301.692 85.7655Z" fill="#D8E0EC"/>
<path d="M450.137 68.1267L334.194 48.7007C331.252 42.8633 327.378 37.417 322.571 32.3619C321.566 31.3027 321.781 30.8935 323.216 31.1342C347.718 35.3588 372.291 39.5834 396.99 43.2123C418.138 46.3356 437.832 46.5884 450.137 68.1267Z" fill="#FDFEFE"/>
<path d="M450.137 68.1267C454.298 75.8297 454.992 84.8026 452.218 95.0452L418.586 88.8166C418.783 83.5087 420.075 72.0444 416.882 67.9823C413.743 63.9924 405.797 63.9202 402.999 68.56C400.883 72.0444 401.887 80.9089 401.977 85.5127C393.235 85.609 384.578 84.0503 376.004 80.8367L375.897 65.0576C375.861 59.858 373.26 57.3545 368.094 57.5471L366.91 57.6013C362.032 57.7818 359.544 60.3274 359.449 65.2381L359.162 80.0423L337.924 75.926C338.618 67.3324 337.374 58.2572 334.194 48.7007L450.137 68.1267Z" fill="#BACBDB"/>
<path d="M125.517 69.6433C120.638 73.3985 122.235 81.6492 122.217 87.2098C122.217 87.8236 121.912 88.1305 121.302 88.1305L111.814 88.1667C110.917 88.1787 110.678 87.7815 111.096 86.9751C115.963 77.563 115.748 68.2291 110.45 58.9734C110.384 58.8614 110.348 58.7336 110.347 58.6031C110.345 58.4726 110.378 58.344 110.442 58.2304C110.505 58.1168 110.598 58.0221 110.71 57.956C110.821 57.8899 110.949 57.8547 111.078 57.8541C166.132 57.9504 221.264 57.9804 276.473 57.9443C286.572 57.9263 290.302 71.7556 287.038 79.4105C283.863 86.8848 277.675 88.2028 269.621 88.1847C233.317 88.1125 197.013 88.1125 160.709 88.1847C160.04 88.1967 159.687 87.8597 159.651 87.1737C159.22 78.2189 162.987 68.7587 149.678 68.7587C142.42 68.7587 135.239 68.7587 128.136 68.7587C127.193 68.7592 126.274 69.0697 125.517 69.6433ZM250.449 74.4283C250.453 73.6862 250.312 72.9506 250.033 72.2636C249.755 71.5765 249.344 70.9513 248.826 70.4238C248.307 69.8964 247.69 69.4768 247.011 69.1893C246.331 68.9017 245.602 68.7517 244.864 68.7478L201.028 68.5169C199.539 68.509 198.108 69.0968 197.049 70.151C195.991 71.2052 195.392 72.6393 195.384 74.138L195.379 75.1851C195.375 75.9272 195.516 76.6628 195.795 77.3499C196.073 78.037 196.484 78.6621 197.002 79.1896C197.521 79.7171 198.138 80.1366 198.817 80.4242C199.497 80.7117 200.226 80.8618 200.963 80.8656L244.8 81.0965C246.289 81.1044 247.72 80.5166 248.779 79.4625C249.837 78.4083 250.436 76.9741 250.444 75.4755L250.449 74.4283Z" fill="#D8E0EC"/>
<path d="M376.004 80.8367C374.175 91.0011 358.713 90.1887 359.162 80.0424L359.449 65.2381C359.544 60.3274 362.031 57.7818 366.91 57.6013L368.094 57.5471C373.26 57.3545 375.861 59.858 375.897 65.0576L376.004 80.8367Z" fill="#122E3C"/>
<path d="M418.586 88.8166C417.522 93.0653 414.802 95.1956 410.425 95.2077C403.848 95.2197 401.032 91.988 401.977 85.5127C401.887 80.9089 400.883 72.0445 402.999 68.56C405.797 63.9202 413.743 63.9924 416.882 67.9823C420.075 72.0444 418.784 83.5087 418.586 88.8166Z" fill="#122E3C"/>
<path d="M244.864 68.7479L201.028 68.5168C197.927 68.5005 195.4 71.0172 195.384 74.1381L195.379 75.1852C195.362 78.306 197.863 80.8492 200.963 80.8656L244.8 81.0966C247.901 81.1129 250.428 78.5962 250.444 75.4754L250.449 74.4283C250.465 71.3074 247.965 68.7642 244.864 68.7479Z" fill="#6F879D"/>
<path d="M337.924 75.9261L359.162 80.0424C358.713 90.1887 374.175 91.0011 376.004 80.8367C384.578 84.0503 393.235 85.609 401.977 85.5127C401.032 91.9881 403.848 95.2197 410.425 95.2077C414.801 95.1957 417.522 93.0653 418.586 88.8166L452.218 95.0452C449.575 101.978 445.186 106.485 439.052 108.568C435.811 109.675 431.154 109.705 425.079 108.658C395.519 103.555 365.685 98.3551 335.575 93.0593C334.355 92.8426 333.895 92.1265 334.194 90.9108L337.924 75.9261Z" fill="#6F879D"/>
<path d="M317.943 105.751C312.705 109.506 309.871 112.533 309.441 114.832C308.998 117.227 308.293 119.611 307.324 121.982C302.35 119.574 296.401 118.371 289.477 118.371C212.804 118.335 135.801 118.377 58.4696 118.497C57.7452 118.498 57.0282 118.351 56.3624 118.063C55.6966 117.776 55.0961 117.355 54.5975 116.826C54.0989 116.297 53.7126 115.671 53.4624 114.987C53.2122 114.303 53.1034 113.574 53.1424 112.846L53.25 111.131C53.5131 106.401 55.9943 104.036 60.6937 104.036C142.796 104.024 223.691 104.09 303.378 104.235C309.584 104.247 314.439 104.752 317.943 105.751Z" fill="#D8E0EC"/>
<path d="M317.943 105.751C332.651 109.163 346.175 118.569 349.279 133.789C349.027 133.945 348.89 134.162 348.866 134.439C348.83 134.8 348.633 134.987 348.274 134.999C347.939 134.999 347.676 134.89 347.485 134.674C347.294 134.433 347.042 134.294 346.732 134.258C335.754 132.91 324.448 130.425 312.813 126.802L307.324 121.982C308.293 119.611 308.999 117.227 309.441 114.832C309.871 112.533 312.705 109.506 317.943 105.751Z" fill="#FDFEFE"/>
<path d="M414.945 149.026L382.479 143.412L376.686 124.672C376.66 124.583 376.657 124.49 376.677 124.4C376.697 124.31 376.74 124.227 376.801 124.158C376.862 124.089 376.94 124.037 377.026 124.007C377.113 123.977 377.205 123.97 377.296 123.986C385.319 125.574 393.427 127.193 401.618 128.842C406.909 129.907 413.241 143.195 414.945 149.026Z" fill="#FDFEFE"/>
<path d="M312.813 126.802C324.448 130.425 335.754 132.91 346.732 134.258C347.042 134.294 347.294 134.433 347.485 134.674C347.676 134.89 347.939 134.999 348.274 134.999C348.633 134.987 348.83 134.8 348.866 134.439C348.89 134.162 349.027 133.945 349.279 133.789C353.099 147.925 350.498 162.477 345.315 175.782L316.131 169.68C324.036 155.105 322.929 140.812 312.813 126.802Z" fill="#BACBDB"/>
<path d="M160.279 161.123C166.054 161.881 174.843 161.755 175.83 155.58C176.499 151.44 174.544 149.321 169.965 149.225C166.018 149.141 162.019 148.918 157.965 148.557C144.464 146.968 134.043 146.571 126.701 147.366C117.661 148.358 119.939 165.781 119.975 171.973C119.975 172.212 119.88 172.442 119.712 172.611C119.544 172.781 119.316 172.876 119.078 172.876L101.643 172.659C101.069 172.647 100.89 172.37 101.105 171.829C106.271 159.468 106.128 147.197 100.675 135.017C100.448 134.511 100.609 134.258 101.159 134.258L288.58 134.367C292.837 134.367 296.419 135.931 299.324 139.061L302.75 142.744C305.752 145.981 305.052 147.6 300.652 147.6L270.536 147.582C268.723 147.58 266.979 148.284 265.669 149.545C264.359 150.807 263.583 152.529 263.505 154.352L263.433 156.248C263.404 156.958 263.518 157.667 263.767 158.332C264.016 158.997 264.396 159.604 264.884 160.117C265.371 160.63 265.956 161.037 266.604 161.316C267.252 161.594 267.949 161.737 268.653 161.736L300.275 161.791C300.437 161.792 300.596 161.838 300.735 161.923C300.873 162.008 300.986 162.129 301.061 162.273C301.137 162.418 301.172 162.58 301.163 162.743C301.154 162.906 301.101 163.064 301.011 163.199C295.396 171.341 288.975 172.551 278.769 172.569C239.595 172.653 200.421 172.665 161.247 172.605C160.59 172.605 160.261 172.274 160.261 171.612L160.279 161.123Z" fill="#FDFEFE"/>
<path d="M450.962 155.219C445.701 156.23 439.853 155.622 433.42 153.396C432.523 147.353 430.586 141.263 427.608 135.125C427.262 134.415 427.483 134.084 428.272 134.132C440.128 134.854 447.124 144.892 450.962 155.219Z" fill="#FDFEFE"/>
<path d="M414.945 149.026C418.58 162.483 417.366 175.855 411.304 189.142L377.045 182.101C381.959 170.041 383.771 157.145 382.479 143.412L414.945 149.026Z" fill="#BACBDB"/>
<path d="M160.279 161.123C160.189 156.519 160.458 153.053 157.965 148.557C162.019 148.918 166.018 149.141 169.965 149.225C174.544 149.321 176.5 151.44 175.83 155.58C174.843 161.755 166.054 161.881 160.279 161.123Z" fill="#BACBDB"/>
<path d="M433.42 153.396C439.853 155.622 445.701 156.23 450.962 155.219C455.255 169.048 453.82 182.258 446.657 194.847L429.025 191.237C433.892 178.936 435.357 166.322 433.42 153.396Z" fill="#BACBDB"/>
<path d="M133.589 169.897L133.786 163.127C133.795 162.821 133.865 162.52 133.992 162.241C134.118 161.963 134.299 161.713 134.523 161.506C134.747 161.299 135.01 161.139 135.296 161.036C135.582 160.933 135.886 160.889 136.19 160.906L142.485 161.231C143.071 161.259 143.623 161.513 144.027 161.94C144.431 162.367 144.656 162.934 144.656 163.524L144.638 170.402C144.636 170.714 144.571 171.023 144.447 171.309C144.322 171.595 144.141 171.852 143.914 172.065C143.688 172.278 143.42 172.442 143.128 172.547C142.836 172.653 142.526 172.697 142.216 172.677L135.705 172.244C135.12 172.202 134.574 171.935 134.179 171.498C133.785 171.061 133.574 170.487 133.589 169.897Z" fill="#3D576A"/>
<path d="M316.131 169.68L345.314 175.782C342.696 181.253 335.593 193.945 327.396 192.861C317.494 191.55 308.125 189.816 299.289 187.662C297.22 187.156 297.154 186.464 299.091 185.586C307.486 181.758 310.912 176.866 316.131 169.68Z" fill="#6F879D"/>
<path d="M377.045 182.101L411.304 189.142C407.298 195.907 402.276 200.938 396.237 204.235C395.379 204.702 394.39 204.855 393.439 204.669L367.484 199.559C367.305 199.525 367.137 199.444 366.998 199.323C366.86 199.203 366.755 199.048 366.695 198.874C366.635 198.7 366.622 198.514 366.657 198.333C366.691 198.152 366.772 197.983 366.892 197.844C371.245 192.801 374.629 187.554 377.045 182.101Z" fill="#6F879D"/>
<path d="M294.356 203.369L303.647 225.792C303.851 226.273 304.191 226.628 304.67 226.857C305.339 227.17 305.925 227.314 306.428 227.29L304.723 227.706C304.181 227.838 303.707 228.17 303.393 228.637C303.078 229.103 302.945 229.672 303.019 230.233C304.239 239.104 302.864 247.011 298.894 253.956C294.709 261.876 288.521 267.051 280.329 269.482C267.929 268.231 255.284 267.641 242.393 267.713C181.922 268.086 121.29 268.255 60.4965 268.219C55.7492 268.219 53.2799 265.829 53.0886 261.051L53.0168 259.336C52.9878 258.593 53.1079 257.852 53.3701 257.158C53.6322 256.463 54.0308 255.83 54.542 255.295C55.0532 254.76 55.6663 254.335 56.3444 254.046C57.0224 253.757 57.7515 253.61 58.4875 253.613C115.012 253.806 170.784 253.854 225.802 253.757C242.088 253.733 258.381 253.739 274.679 253.775C278.111 253.788 281.065 251.97 283.54 248.323C292.616 234.909 288.778 218.354 276.007 208.785C271.546 205.451 266.919 203.772 262.124 203.748C200.385 203.411 138.414 203.285 76.2091 203.369C75.4729 203.371 74.7437 203.225 74.0643 202.939C73.3848 202.653 72.7688 202.233 72.2524 201.703C71.7361 201.174 71.3298 200.545 71.0575 199.854C70.7852 199.164 70.6523 198.425 70.6666 197.682L70.7025 195.967C70.7981 191.225 73.2017 188.866 77.9131 188.89C139.065 189.13 198.98 189.269 257.657 189.305C267.248 189.305 275.505 190.9 282.428 194.089C287.319 196.34 291.295 199.433 294.356 203.369Z" fill="#D8E0EC"/>
<path d="M429.025 191.237L446.657 194.847C441.384 204.47 430.245 213.804 419.322 208.93C418.783 208.689 418.664 208.316 418.963 207.81L429.025 191.237Z" fill="#6F879D"/>
<path d="M294.356 203.369C297.961 206.33 299.899 208.243 304.526 209.291C311.821 210.94 319.139 212.528 326.481 214.057C327.091 214.177 327.509 214.532 327.736 215.122L333.889 230.829C324.669 231.31 315.516 230.131 306.428 227.29C305.925 227.314 305.339 227.17 304.67 226.857C304.191 226.628 303.851 226.273 303.647 225.792L294.356 203.369Z" fill="#FDFEFE"/>
<path d="M409.887 246.337C401.564 246.133 393.415 245.031 385.439 243.033C374.617 240.337 363.55 238.093 352.238 236.299L348.328 219.942C348.295 219.799 348.299 219.65 348.338 219.508C348.378 219.367 348.451 219.237 348.553 219.131C348.654 219.026 348.78 218.947 348.919 218.903C349.059 218.858 349.207 218.85 349.35 218.877C366.079 222.247 382.599 225.461 398.91 228.518C403.609 229.403 408.398 241.734 409.887 246.337Z" fill="#FDFEFE"/>
<path d="M270.949 227.489C270.231 227.826 269.562 228.476 268.94 229.439C268.791 229.665 268.589 229.85 268.35 229.976C268.112 230.103 267.846 230.166 267.577 230.161C236.307 229.992 205.043 230.161 173.785 230.666C173.367 230.666 172.99 230.588 172.655 230.432C172.273 230.251 171.872 230.161 171.453 230.161L107.527 230.125L106.092 220.917C105.996 220.267 106.271 219.948 106.917 219.96C157.768 220.051 208.385 220.61 259.433 220.105C264.778 220.045 268.617 222.506 270.949 227.489Z" fill="#BACBDB"/>
<path d="M270.949 227.489C272.76 231.587 272.204 238.267 266.231 238.123C214.34 236.877 159.597 238.141 106.235 238.05C106.159 238.05 106.083 238.032 106.015 237.998C105.946 237.965 105.886 237.917 105.84 237.857C105.793 237.798 105.761 237.729 105.745 237.657C105.73 237.584 105.732 237.508 105.751 237.437L107.527 230.125L171.453 230.161C171.872 230.161 172.272 230.251 172.655 230.432C172.99 230.588 173.367 230.666 173.785 230.666C205.043 230.161 236.307 229.992 267.577 230.161C267.846 230.166 268.112 230.103 268.35 229.976C268.589 229.85 268.791 229.665 268.94 229.439C269.561 228.476 270.231 227.826 270.949 227.489Z" fill="#D8E0EC"/>
<path d="M306.428 227.29C315.516 230.131 324.669 231.31 333.889 230.829C335.73 240.614 334.798 250.634 331.091 260.889L298.894 253.956C302.864 247.011 304.239 239.104 303.02 230.233C302.945 229.672 303.078 229.103 303.393 228.637C303.707 228.17 304.181 227.838 304.724 227.706L306.428 227.29Z" fill="#BACBDB"/>
<path d="M448.469 251.248L447.985 253.378C447.865 253.872 447.56 254.076 447.07 253.992L428.146 250.67L422.837 232.779C422.646 232.105 422.891 231.804 423.573 231.876C435.542 233.092 443.841 239.549 448.469 251.248Z" fill="#FDFEFE"/>
<path d="M409.887 246.337C412.314 256.014 411.501 265.553 407.447 274.953L348.31 263.85C350.929 254.919 352.238 245.735 352.238 236.299C363.55 238.093 374.617 240.337 385.439 243.033C393.415 245.031 401.564 246.133 409.887 246.337Z" fill="#BACBDB"/>
<path d="M428.146 250.67L447.07 253.992C447.56 254.076 447.865 253.872 447.984 253.378L448.469 251.248C452.403 262.333 451.793 272.798 446.639 282.644L424.631 278.022C427.788 269.043 428.96 259.926 428.146 250.67Z" fill="#BACBDB"/>
<path d="M298.894 253.956L331.091 260.889C328.281 267.027 324.352 272.094 319.306 276.09C318.517 276.728 317.626 276.945 316.634 276.74L280.33 269.482C288.521 267.051 294.709 261.876 298.894 253.956Z" fill="#6F879D"/>
<path d="M348.31 263.85L407.447 274.953C404.685 281.073 398.425 290.154 390.551 288.89C373.989 286.218 357.35 283.288 340.633 280.098C340.457 280.065 340.292 279.987 340.154 279.872C340.016 279.756 339.911 279.606 339.848 279.437C339.785 279.268 339.766 279.086 339.793 278.907C339.821 278.729 339.894 278.561 340.005 278.419C343.772 273.581 346.54 268.724 348.31 263.85Z" fill="#6F879D"/>
<path d="M424.631 278.022L446.639 282.644C443.554 287.916 439.447 291.719 434.317 294.054C428.756 296.545 423.555 294.614 417.976 293.946C417.785 293.922 417.602 293.852 417.443 293.741C417.285 293.63 417.156 293.481 417.068 293.309C416.979 293.136 416.934 292.944 416.936 292.75C416.938 292.556 416.987 292.365 417.079 292.194L424.631 278.022Z" fill="#6F879D"/>
<path d="M128.423 284.666C131.747 287.771 132.447 291.4 130.522 295.552C128.656 296.78 127.233 297.394 126.253 297.394C110.241 297.298 93.9665 297.364 77.4288 297.592C73.112 297.653 70.828 295.51 70.5769 291.165L70.4872 289.595C70.448 288.89 70.5532 288.184 70.7965 287.521C71.0399 286.859 71.416 286.253 71.9019 285.742C72.3877 285.231 72.9729 284.826 73.6211 284.551C74.2694 284.275 74.9671 284.136 75.671 284.142L128.423 284.666Z" fill="#BACBDB"/>
<path d="M231.093 284.485C230.627 284.413 230.364 284.401 230.304 284.449C230.162 284.577 230.056 284.741 229.999 284.925C229.942 285.108 229.935 285.303 229.979 285.49C230.023 285.677 230.117 285.848 230.25 285.986C230.383 286.124 230.55 286.223 230.734 286.273C241.138 289.005 249.831 294.565 256.814 302.954C254.722 302.305 252.833 301.462 251.146 300.427C249.066 299.163 247.23 298.399 245.64 298.134C229.246 295.408 211.955 296.798 196.009 296.293C187.196 296.016 177.761 296.022 167.705 296.311C155.328 296.672 142.934 296.419 130.522 295.552C132.447 291.4 131.747 287.771 128.423 284.666L231.093 284.485Z" fill="#3D576A"/>
<path d="M231.093 284.485C240.958 285.063 250.644 285.442 260.438 287.031C275.301 289.438 290.105 291.815 304.849 294.162C306.236 294.379 307.247 295.119 307.88 296.383L315.844 312.198L256.42 303.027C256.551 303.003 256.683 302.979 256.814 302.954C249.831 294.565 241.138 289.005 230.734 286.273C230.55 286.223 230.383 286.124 230.25 285.986C230.117 285.848 230.023 285.677 229.979 285.49C229.935 285.303 229.942 285.108 229.999 284.925C230.056 284.741 230.162 284.577 230.304 284.449C230.364 284.401 230.627 284.413 231.093 284.485Z" fill="#FDFEFE"/>
<path d="M367.987 320.376C357.165 319.979 346.355 318.583 335.557 316.188C334.505 310.435 332.448 304.808 329.387 299.308C329.302 299.155 329.263 298.982 329.274 298.808C329.285 298.634 329.346 298.467 329.449 298.325C329.552 298.183 329.694 298.073 329.857 298.008C330.021 297.942 330.2 297.923 330.373 297.953L357.207 303.171C357.613 303.242 357.98 303.446 358.247 303.749C362.049 307.925 365.296 313.468 367.987 320.376Z" fill="#FDFEFE"/>
<path d="M256.42 303.027L315.844 312.198C318.894 321.321 319.342 331.227 317.19 341.915L286.589 336.751C286.074 336.661 285.544 336.738 285.073 336.972C284.603 337.205 284.217 337.583 283.971 338.051C278.123 349.317 271.056 359.445 259.774 366.811L247.918 365.692C247.347 365.634 246.773 365.767 246.285 366.071C235.26 372.968 223.649 376.422 211.452 376.434C161.337 376.482 111.03 376.5 60.5323 376.488C55.6057 376.476 53.1125 373.997 53.0527 369.05L53.0168 367.263C53.0073 366.484 53.1515 365.71 53.4411 364.988C53.7307 364.266 54.16 363.608 54.7039 363.054C55.2478 362.5 55.8956 362.06 56.6098 361.76C57.3239 361.459 58.0902 361.305 58.8642 361.305C115.7 361.377 172.243 361.473 228.492 361.594C233.766 361.606 239.679 360.029 246.232 356.863C264.079 348.234 271.935 325.323 259.81 307.973C258.674 306.349 257.544 304.7 256.42 303.027Z" fill="#BACBDB"/>
<path d="M419.501 325.738C419.537 326.87 419.178 327.755 418.425 328.392C417.851 328.862 417.02 329.03 415.932 328.898C406.724 327.706 397.271 326.358 387.573 324.854L381.905 307.305C381.75 306.824 381.923 306.601 382.426 306.637C400.362 308.082 411.716 310.158 419.501 325.738Z" fill="#FDFEFE"/>
<path d="M89.8589 344.894C95.1324 334.567 94.5763 322.742 89.4643 312.469C89.1654 311.867 89.3507 311.566 90.0204 311.566C135.879 311.614 181.719 311.626 227.542 311.602C232.851 311.602 236.683 312.174 239.039 313.317C251.667 319.402 250.931 337.943 239.039 343.594C235.798 345.134 230.154 345.887 222.107 345.851C193.755 345.73 165.498 345.7 137.338 345.76C137.196 345.76 137.056 345.733 136.926 345.679C136.795 345.626 136.677 345.547 136.577 345.448C136.477 345.349 136.397 345.232 136.343 345.103C136.289 344.974 136.261 344.835 136.261 344.695C136.261 336.264 138.575 326.768 126.809 326.009C115.891 325.311 108.382 325.341 104.28 326.1C96.2624 327.562 97.7511 338.719 97.7152 344.695C97.7033 345.429 97.3326 345.802 96.6032 345.815L90.4688 345.887C89.7274 345.887 89.5241 345.556 89.8589 344.894ZM217.643 330.15C217.653 329.245 217.485 328.346 217.149 327.506C216.813 326.665 216.317 325.9 215.687 325.253C215.058 324.606 214.308 324.09 213.48 323.734C212.652 323.379 211.763 323.191 210.863 323.182L185.646 322.916C184.746 322.906 183.853 323.075 183.018 323.413C182.183 323.751 181.423 324.251 180.78 324.885C180.137 325.518 179.625 326.273 179.272 327.106C178.919 327.939 178.732 328.834 178.723 329.74L178.715 330.462C178.706 331.368 178.873 332.266 179.209 333.107C179.545 333.947 180.041 334.713 180.671 335.36C181.301 336.007 182.051 336.523 182.878 336.878C183.706 337.233 184.595 337.421 185.495 337.431L210.712 337.696C211.612 337.706 212.505 337.537 213.34 337.199C214.175 336.861 214.935 336.361 215.578 335.728C216.221 335.094 216.734 334.339 217.087 333.506C217.44 332.673 217.626 331.778 217.636 330.872L217.643 330.15Z" fill="#FDFEFE"/>
<path d="M335.557 316.188C346.355 318.583 357.165 319.979 367.987 320.376C371.06 328.537 371.765 338.268 370.103 349.57L334.857 343.558C336.842 334.651 337.076 325.528 335.557 316.188Z" fill="#BACBDB"/>
<path d="M210.863 323.182L185.646 322.916C181.862 322.876 178.762 325.931 178.723 329.74L178.715 330.462C178.675 334.271 181.711 337.391 185.495 337.431L210.712 337.696C214.496 337.736 217.596 334.681 217.636 330.872L217.643 330.15C217.683 326.342 214.647 323.222 210.863 323.182Z" fill="#122E3C"/>
<path d="M419.501 325.739C422.765 336.162 423.106 346.958 420.523 358.127L386.838 352.296C388.907 343.245 389.152 334.098 387.573 324.854C397.271 326.358 406.724 327.706 415.932 328.898C417.02 329.03 417.851 328.862 418.425 328.392C419.178 327.755 419.537 326.87 419.501 325.739Z" fill="#BACBDB"/>
<path d="M317.19 341.915C314.38 352.832 308.969 362.039 300.957 369.537C300.49 369.959 299.946 370.163 299.325 370.151C286.171 370.019 272.987 368.906 259.774 366.811C271.056 359.445 278.123 349.317 283.971 338.051C284.217 337.583 284.603 337.205 285.073 336.972C285.544 336.738 286.075 336.661 286.589 336.751L317.19 341.915Z" fill="#6F879D"/>
<path d="M334.857 343.558L370.103 349.57C368.836 357.875 364.782 365.71 357.942 373.076C357.565 373.483 357.098 373.793 356.579 373.978C356.061 374.164 355.507 374.22 354.964 374.141L324.454 369.79C323.533 369.658 323.33 369.194 323.844 368.4C328.902 360.673 332.573 352.392 334.857 343.558Z" fill="#6F879D"/>
<path d="M386.838 352.296L420.523 358.127C418.497 366.107 412.326 374.52 404.219 377.535C397.403 380.045 386.031 377.914 378.426 376.56C378.279 376.534 378.142 376.47 378.027 376.376C377.911 376.281 377.821 376.159 377.766 376.02C377.71 375.881 377.691 375.73 377.709 375.582C377.727 375.433 377.782 375.291 377.87 375.17C380.213 372.029 381.876 368.719 382.856 365.241C384.291 360.137 385.618 355.822 386.838 352.296Z" fill="#6F879D"/>
<path d="M283.863 390.516C290.117 395.764 295.068 401.607 298.715 408.047C305.65 425.583 301.351 440.363 285.818 452.387C280.306 455.42 273.902 457.695 266.608 459.211C264.719 459.609 261.042 459.314 255.577 458.327C278.733 447.278 283.433 419.294 271.343 398.027C269.854 395.427 267.397 393.333 265.765 390.552C265.672 390.389 265.625 390.204 265.629 390.016C265.632 389.828 265.685 389.645 265.783 389.487C265.881 389.329 266.02 389.201 266.184 389.119C266.349 389.036 266.532 389.001 266.716 389.018L283.863 390.516Z" fill="#3D576A"/>
<path d="M283.863 390.516L304.741 392.141C305.371 392.191 305.977 392.405 306.502 392.762C307.027 393.12 307.452 393.608 307.737 394.181L315.306 409.491L298.715 408.047C295.068 401.607 290.117 395.764 283.863 390.516Z" fill="#FDFEFE"/>
<path d="M255.164 404.761L73.4109 404.779L68.1734 393.73C68.1181 393.619 68.0919 393.496 68.0974 393.373C68.1028 393.249 68.1397 393.129 68.2045 393.024C68.2693 392.919 68.3599 392.832 68.4675 392.772C68.5751 392.713 68.6962 392.682 68.8191 392.683C123.849 392.839 178.419 392.899 232.528 392.863C241.305 392.863 248.85 396.829 255.164 404.761Z" fill="#BACBDB"/>
<path d="M350.695 411.26C345.302 412.042 339.933 411.477 334.588 409.563L328.777 396.095C328.107 394.554 328.603 393.898 330.265 394.127L339.987 395.445C340.884 395.568 341.738 395.906 342.475 396.431C343.212 396.956 343.811 397.652 344.22 398.46L350.695 411.26Z" fill="#FDFEFE"/>
<path d="M445.581 416.189C443.01 417.272 439.704 417.591 435.662 417.146C416.505 415.027 394.754 413.607 370.408 412.885L362.641 395.806C362.598 395.707 362.581 395.599 362.591 395.491C362.602 395.384 362.639 395.281 362.701 395.192C362.762 395.103 362.844 395.032 362.941 394.984C363.037 394.937 363.144 394.915 363.251 394.921C382.3 396.197 401.403 397.527 420.559 398.911C433.348 399.832 439.231 405.23 445.581 416.189Z" fill="#FDFEFE"/>
<path d="M255.164 404.761C263.595 415.003 264.491 425.499 257.855 436.247C253.801 442.818 246.447 443.649 238.465 443.504C226.28 443.3 214.113 443.378 201.964 443.739L201.175 443.721C200.706 443.706 200.249 443.574 199.845 443.335C199.442 443.096 199.104 442.759 198.863 442.355C198.622 441.951 198.485 441.492 198.466 441.021C198.447 440.55 198.546 440.082 198.753 439.659C199.674 437.805 200.152 435.795 200.188 433.629C208.78 429.513 204.816 419.475 196.206 419.475C162.581 419.499 128.943 419.493 95.2938 419.457C90.9352 419.457 88.0473 421.045 86.9353 425.216L75.3122 424.746C75.9938 417.946 75.36 411.29 73.4109 404.779L255.164 404.761Z" fill="#FDFEFE"/>
<path d="M298.715 408.047L315.306 409.491C320.902 424.259 319.635 438.558 311.504 452.387H285.818C301.351 440.363 305.65 425.583 298.715 408.047Z" fill="#BACBDB"/>
<path d="M334.588 409.563C339.933 411.477 345.303 412.042 350.696 411.26C355.718 423.633 355.987 436.463 351.503 449.751L333.261 446.646C337.315 434.453 337.757 422.092 334.588 409.563Z" fill="#BACBDB"/>
<path d="M445.581 416.189C450.292 427.828 450.358 440.026 445.778 452.784C426.586 451.954 406.909 448.325 387.717 446.375C382.892 445.869 381.332 444.876 377.87 441.898C376.363 440.622 374.348 440.285 371.825 440.887C373.069 432.088 372.596 422.754 370.408 412.885C394.754 413.607 416.506 415.027 435.662 417.146C439.704 417.591 443.01 417.272 445.581 416.189ZM394.85 426.106C394.868 425.203 394.708 424.305 394.381 423.464C394.053 422.623 393.564 421.855 392.942 421.204C392.32 420.553 391.576 420.032 390.754 419.671C389.931 419.309 389.046 419.114 388.149 419.097L386.391 419.063C384.579 419.028 382.828 419.719 381.522 420.984C380.216 422.249 379.463 423.984 379.428 425.808L379.22 436.674C379.203 437.577 379.363 438.475 379.69 439.316C380.018 440.157 380.507 440.925 381.129 441.576C381.751 442.227 382.495 442.748 383.317 443.11C384.14 443.471 385.025 443.666 385.922 443.684L387.679 443.718C389.491 443.753 391.243 443.062 392.549 441.797C393.855 440.532 394.608 438.796 394.643 436.972L394.85 426.106ZM421.143 427.201C421.151 426.31 420.984 425.425 420.652 424.599C420.32 423.772 419.83 423.019 419.209 422.384C418.589 421.748 417.85 421.241 417.034 420.893C416.219 420.545 415.344 420.361 414.458 420.354L411.732 420.33C410.846 420.322 409.967 420.49 409.146 420.824C408.325 421.158 407.577 421.651 406.946 422.276C406.314 422.901 405.811 423.645 405.465 424.465C405.119 425.286 404.937 426.167 404.929 427.059L404.837 437.674C404.829 438.565 404.996 439.449 405.328 440.276C405.659 441.102 406.15 441.855 406.77 442.491C407.391 443.127 408.13 443.633 408.946 443.982C409.761 444.33 410.636 444.513 411.522 444.521L414.248 444.545C415.134 444.553 416.012 444.385 416.834 444.051C417.655 443.717 418.402 443.224 419.034 442.599C419.666 441.974 420.169 441.23 420.515 440.409C420.861 439.589 421.043 438.708 421.051 437.816L421.143 427.201Z" fill="#BACBDB"/>
<path d="M388.149 419.097L386.391 419.063C382.618 418.99 379.5 422.01 379.428 425.808L379.22 436.674C379.148 440.473 382.148 443.611 385.922 443.684L387.679 443.718C391.453 443.791 394.571 440.771 394.643 436.972L394.85 426.106C394.923 422.308 391.923 419.17 388.149 419.097Z" fill="#122E3C"/>
<path d="M200.188 433.629C165.654 433.834 131.143 433.936 96.6571 433.936C90.2596 433.936 87.019 431.029 86.9353 425.216C88.0474 421.045 90.9352 419.457 95.2939 419.457C128.943 419.493 162.581 419.499 196.206 419.475C204.816 419.475 208.78 429.513 200.188 433.629Z" fill="#122E3C"/>
<path d="M414.458 420.354L411.732 420.33C408.007 420.297 404.961 423.31 404.929 427.059L404.837 437.674C404.804 441.423 407.797 444.488 411.522 444.521L414.248 444.545C417.973 444.578 421.018 441.565 421.051 437.816L421.143 427.201C421.176 423.452 418.183 420.386 414.458 420.354Z" fill="#122E3C"/>
<path d="M75.3123 424.746L86.9353 425.216C87.019 431.029 90.2596 433.936 96.657 433.936C131.143 433.936 165.654 433.833 200.188 433.629C200.152 435.795 199.674 437.805 198.753 439.659C198.546 440.082 198.447 440.55 198.466 441.021C198.485 441.492 198.622 441.951 198.863 442.355C199.104 442.759 199.442 443.096 199.846 443.335C200.249 443.573 200.706 443.706 201.175 443.721L201.964 443.739L69.8775 443.775C69.7055 443.773 69.5369 443.727 69.3878 443.641C69.2387 443.555 69.1141 443.431 69.0259 443.283C68.9377 443.134 68.8889 442.965 68.8841 442.792C68.8793 442.619 68.9187 442.448 68.9985 442.295C72.0717 436.602 74.1763 430.752 75.3123 424.746Z" fill="#BACBDB"/>
<path d="M445.778 452.784C437.94 466.848 426.496 473.113 410.389 473.402C392.775 473.715 374.719 473.667 356.22 473.257C355.024 473.233 354.851 472.8 355.7 471.957C364.919 462.84 368.614 453.56 371.825 440.887C374.348 440.285 376.363 440.622 377.87 441.898C381.332 444.877 382.892 445.87 387.717 446.375C406.909 448.325 426.586 451.954 445.778 452.784Z" fill="#6F879D"/>
<path d="M333.261 446.646L351.503 449.751C346.947 459.5 340.884 465.277 331.826 472.914C331.455 473.239 331.025 473.39 330.535 473.366L315.27 472.968C315.155 472.964 315.045 472.926 314.952 472.857C314.859 472.789 314.789 472.694 314.75 472.585C314.712 472.477 314.706 472.358 314.735 472.246C314.764 472.135 314.825 472.034 314.912 471.957C322.971 464.808 329.088 456.371 333.261 446.646Z" fill="#6F879D"/>
<path d="M285.818 452.387H311.504C289.675 478.258 261.711 474.72 227.219 473.943C231.237 473.311 235.272 473.077 238.824 471.109C244.073 468.184 248.653 464.23 252.563 459.247C251.679 459.103 252.683 458.796 255.577 458.327C261.042 459.314 264.719 459.609 266.608 459.211C273.902 457.695 280.306 455.42 285.818 452.387Z" fill="#6F879D"/>
<path d="M252.563 459.247C248.653 464.23 244.073 468.184 238.824 471.109C235.272 473.077 231.237 473.311 227.219 473.943L75.4378 473.961C70.6547 473.961 68.006 471.56 67.4918 466.758L67.3125 465.025C67.2344 464.299 67.3089 463.566 67.5311 462.871C67.7532 462.177 68.1181 461.537 68.6019 460.994C69.0858 460.451 69.6778 460.016 70.3394 459.718C71.0011 459.421 71.7176 459.266 72.4424 459.266L252.563 459.247Z" fill="#BACBDB"/>
</g>
<defs>
<clipPath id="clip0_232_1208">
<rect width="512" height="512" fill="white"/>
</clipPath>
</defs>
</svg>
